<svg xmlns="http://www.w3.org/2000/svg" viewBox="0 0 116.56 97.87"><defs><style>.cls-1{fill:none;stroke:#18196c;stroke-miterlimit:10}</style></defs><g id="Layer_2" data-name="Layer 2"><g id="Layer_1-2" data-name="Layer 1"><path class="cls-1" d="M.5 7.3A6.81 6.81 0 0 1 7.3.5h102a6.8 6.8 0 0 1 6.79 6.8v8.5H.5zm115.56 83.27a6.8 6.8 0 0 1-6.79 6.8H7.3a6.81 6.81 0 0 1-6.8-6.8V19.19h115.56z"/><path d="M102.3 12.57A3.57 3.57 0 1 1 105.87 9a3.58 3.58 0 0 1-3.57 3.57zm-8.3 0A3.57 3.57 0 1 1 97.54 9 3.58 3.58 0 0 1 94 12.57zm-8.36 0A3.57 3.57 0 1 1 89.21 9a3.58 3.58 0 0 1-3.57 3.57z" stroke-width=".5" stroke-miterlimit="10" fill="none" stroke="#18196c"/><path class="cls-1" d="M99.92 76.22H64.23c-.94 0-1.7-1.26-1.7-2.82V45.26c0-1.56.76-2.82 1.7-2.82h35.69c.94 0 1.7 1.26 1.7 2.82V73.4c0 1.6-.76 2.82-1.7 2.82z"/><path d="M13 46l1.65 2.47a2.14 2.14 0 0 0 1.57 1h.17a2.09 2.09 0 0 0 1.53-.68l6.71-6.88M13 58.43l1.65 2.48a2.13 2.13 0 0 0 1.57 1h.17a2.13 2.13 0 0 0 1.53-.68L24.59 54M13 71.3l1.65 2.48a2.1 2.1 0 0 0 1.57 1h.17a2.09 2.09 0 0 0 1.53-.68c1.17-1.23 6.34-6.86 6.34-6.86" stroke-linecap="round" stroke-linejoin="round" fill="none" stroke="#18196c"/><path class="cls-1" d="M26.86 46.47H52.2M26.86 60.23H52.2M26.86 73.98H52.2"/></g></g></svg>