<svg xmlns="http://www.w3.org/2000/svg" viewBox="0 0 142.05 106.57"><defs><style>.cls-1,.cls-2{fill:none;stroke-miterlimit:10}.cls-1{stroke:#18196c}.cls-2{stroke:#38f}</style></defs><g id="Layer_2" data-name="Layer 2"><g id="Layer_1-2" data-name="Layer 1"><path class="cls-1" d="M21.49 22.59h-4.25A1.41 1.41 0 0 0 15.83 24v21.23m105.48 44.43h4.24a1.41 1.41 0 0 0 1.45-1.41V67m0-35.92V24a1.41 1.41 0 0 0-1.41-1.41h-5"/><path class="cls-1" d="M21.49 15.51h-7.08a4.24 4.24 0 0 0-4.24 4.24v68.48a1.41 1.41 0 0 0 1.41 1.41M127 38.49v-3.17M15.83 81.16v7.07a1.41 1.41 0 0 0 1.41 1.41h5m-6.41-14.55v2.67M78.9 97.87H63.15a1.41 1.41 0 0 0 0 2.82H78.9a1.41 1.41 0 0 0 0-2.82zM28.57 18.5h30.24M90.73 2.77a1.41 1.41 0 0 0-1.41-1.41H37.41a11.69 11.69 0 0 0-11.66 11.69V58.6m90.57-38.86V17.3M25.75 59.91v4m8.91-1.85A20.79 20.79 0 0 0 55.4 41.27v-.11"/><circle class="cls-1" cx="35.01" cy="9.92" r="1.48"/><circle class="cls-1" cx="40.08" cy="9.92" r="1.48"/><circle class="cls-1" cx="45.15" cy="9.89" r="1.48"/><path class="cls-1" d="M129.81 92.48H1.91A1.41 1.41 0 0 0 .5 93.89v4a8.22 8.22 0 0 0 8.21 8.21h124.63a8.22 8.22 0 0 0 8.21-8.21v-4a1.42 1.42 0 0 0-1.41-1.41h-7.51V19.75a4.25 4.25 0 0 0-4.24-4.24h-7.83m18.16 82.35a5.38 5.38 0 0 1-5.38 5.39H8.71a5.39 5.39 0 0 1-5.39-5.39V95.3h135.4zm-22.41-84.81a11.7 11.7 0 0 0-9.61-11.5"/><path class="cls-1" d="M25.75 68.16a11.69 11.69 0 0 0 11.66 11.69h68.1a11.68 11.68 0 0 0 10.8-11.65V22.61"/><path class="cls-2" d="M103.26.59a.39.39 0 0 1 .3-.09.45.45 0 0 1 .29.16.48.48 0 0 1-.06.66L81.55 19.45a4.6 4.6 0 0 0-.78-.52z"/><path class="cls-1" d="M66.33 17.43a2.55 2.55 0 0 1 1.42-1.75l13.81-6.2a3.29 3.29 0 0 1 3.56.6l1 .88-8.9 7.25a6.34 6.34 0 0 0-1.62.46A5.82 5.82 0 0 0 72.47 22l-6.24 5.09a3.69 3.69 0 0 1-2.33.91z"/><path class="cls-2" d="M59.7 37.27a16.57 16.57 0 0 1-3.2 2 16.79 16.79 0 0 1 2.75-2.84l13.11-10.64a5.54 5.54 0 0 0 .25.68l.09.2-4.2 3.42z"/><path class="cls-1" d="M74.46 43.77a22.9 22.9 0 0 1-1.17-3.35L71 31.73l2.91-2.38 2.77 6.33a14.58 14.58 0 0 1 .75 9.32l-.16.62a2.69 2.69 0 0 1-1.63.88z"/><path class="cls-1" d="M90.85 66l-5.26-2.08a7.33 7.33 0 0 1-4-3.91l-1.11-2.54a15.25 15.25 0 0 1-.83-9.7l.29-1.14.25-1a17.36 17.36 0 0 0-1-11.1l-4-9.2a3.11 3.11 0 0 1-.17-2v-.11a3 3 0 0 1 1.66-2 2.89 2.89 0 0 1 2.32-.03 3 3 0 0 1 1.71 1.65l4.66 10.64a19.27 19.27 0 0 0 3.89 5.79L92.84 43a1.41 1.41 0 1 0 2-2l-3.57-3.7a16.65 16.65 0 0 1-3.33-4.95l-4.65-10.64L91 15.43l9 8.35a5.4 5.4 0 0 1 1.55 2.54l7 25.43a7 7 0 0 0 2.37 3.6l2.51 2v10.81a8.87 8.87 0 0 1-7.65 8.84l-12.32-9.52A11 11 0 0 0 90.85 66z"/></g></g></svg>