<svg xmlns="http://www.w3.org/2000/svg" viewBox="0 0 122.81 138.54"><defs><style>.cls-2,.cls-3{fill:none;stroke-miterlimit:10}.cls-2{stroke:#38f}.cls-3{stroke:#18196c}</style></defs><g id="Layer_2" data-name="Layer 2"><g id="Layer_1-2" data-name="Layer 1"><path d="M96.79 21H58.58a1.23 1.23 0 1 0 0 2.45h38.21a1.23 1.23 0 1 0 0-2.45zM42.07 33.66a1.23 1.23 0 0 0 1.23 1.23h19.1a1.23 1.23 0 1 0 0-2.46H43.3a1.23 1.23 0 0 0-1.23 1.23zm43.26 1.23a1.23 1.23 0 0 0 0-2.46H70a1.23 1.23 0 0 0 0 2.46zm26.74 0a1.23 1.23 0 1 0 0-2.46h-7.64a1.23 1.23 0 0 0 0 2.46zm-50.9 10.23a1.23 1.23 0 0 0 1.23 1.23h49.67a1.23 1.23 0 1 0 0-2.46H62.4a1.23 1.23 0 0 0-1.23 1.23zm-14.05-1.23a1.23 1.23 0 1 0 0 2.46h7.64a1.23 1.23 0 1 0 0-2.46zM43.3 57.81h42a1.23 1.23 0 0 0 0-2.46h-42a1.23 1.23 0 1 0 0 2.46zm68.77-2.46H93a1.23 1.23 0 1 0 0 2.46h19.1a1.23 1.23 0 1 0 0-2.46zM43.3 69.27h57.31a1.23 1.23 0 1 0 0-2.45H43.3a1.23 1.23 0 1 0 0 2.45z" fill="#38f"/><path class="cls-2" d="M99.28 97.72v-5.87a1.24 1.24 0 0 0-.61-1.06l-5.09-2.93"/><path class="cls-3" d="M122.31 75.68v17.88h-10.24a1.23 1.23 0 1 0 0 2.46h10.24v16a4.52 4.52 0 0 1-4.51 4.51H103"/><path class="cls-2" d="M101.83 113.13v-6.88a1.2 1.2 0 0 0-.08-.42l4.55-2.63a1.23 1.23 0 0 0 .61-1.07V87.45a1.23 1.23 0 0 0-.61-1.07L93.57 79a1.21 1.21 0 0 0-1.22 0l-12.73 7.38a1.23 1.23 0 0 0-.62 1.07v14.68a1.23 1.23 0 0 0 .61 1.07l4.56 2.63a1 1 0 0 0-.09.42v30.57a1.23 1.23 0 0 0 2.1.86l6.82-6.76 6.77 6.76a1.23 1.23 0 0 0 1.33.27 1.22 1.22 0 0 0 .77-1.13v-23.69z"/><path class="cls-3" d="M82.28 116.48H37.57a4.51 4.51 0 0 1-4.5-4.5V96h40.8a1.23 1.23 0 0 0 0-2.45h-40.8V45.12m0-7.64V14.55A16.52 16.52 0 0 0 25.21.5h83a14.08 14.08 0 0 1 14.06 14.05V68"/><path class="cls-3" d="M14.55 2.5a14.08 14.08 0 0 1 14.06 14.05v10.24H16.86a8.86 8.86 0 0 0-6.13-15.28 1.23 1.23 0 0 0 0 2.45 6.42 6.42 0 1 1 0 12.83A10.25 10.25 0 0 1 .5 16.55 14.08 14.08 0 0 1 14.55 2.5z"/></g></g></svg>