<svg xmlns="http://www.w3.org/2000/svg" viewBox="0 0 300.05 238.78"><defs><style>.cls-1{fill:none;stroke:#18196c;stroke-miterlimit:10}.cls-2{fill:#38f}</style></defs><g id="Layer_2" data-name="Layer 2"><g id="Layer_1-2" data-name="Layer 1"><path class="cls-1" d="M290.61.5H69.25a8.94 8.94 0 0 0-8.94 8.94v21h-21a8.93 8.93 0 0 0-8.93 8.93v21h-21A8.94 8.94 0 0 0 .5 69.25v160.09a8.94 8.94 0 0 0 8.94 8.94H230.8a8.94 8.94 0 0 0 8.94-8.94V210.4h21a8.94 8.94 0 0 0 8.94-8.94v-21h21a8.94 8.94 0 0 0 8.94-8.94V9.44A8.94 8.94 0 0 0 290.61.5zm-50.87 209.9V69.25a8.94 8.94 0 0 0-8.94-8.94H30.41M226.82 210.4v15H13.43V73.2h213.42v137.2zm42.83-29.9V39.34a8.93 8.93 0 0 0-8.94-8.93H60.31"/><path class="cls-2" d="M103.31 200.43H36.85a6.47 6.47 0 0 0 0 12.93h66.46a6.47 6.47 0 0 0 0-12.93zm-66.46-10.9h35.89a6.44 6.44 0 0 0 6.44-6.44 6.65 6.65 0 0 0-6.44-6.45H36.85a6.47 6.47 0 0 0 0 12.93z"/><path class="cls-1" d="M105.17 90.18H36.85a6.44 6.44 0 0 0-6.44 6.45v62.63a6.44 6.44 0 0 0 6.44 6.45h68.32a6.44 6.44 0 0 0 6.44-6.45v-62.6a6.44 6.44 0 0 0-6.41-6.48zm98.22 0h-68.32a6.44 6.44 0 0 0-6.44 6.45v62.63a6.44 6.44 0 0 0 6.44 6.45h68.32a6.45 6.45 0 0 0 6.45-6.45v-62.6a6.45 6.45 0 0 0-6.42-6.48z"/><path class="cls-2" d="M201.53 200.43h-66.46a6.4 6.4 0 0 0-5.65 3.33 6.64 6.64 0 0 0 3.23 8.82 6.36 6.36 0 0 0 2.42.61h66.46a6.46 6.46 0 1 0 0-12.92zm-66.46-10.9H171a6.44 6.44 0 0 0 6.45-6.44 6.66 6.66 0 0 0-6.45-6.45h-35.93a6.45 6.45 0 0 0-5.88 3.86 6.22 6.22 0 0 0-.56 2.59 6.44 6.44 0 0 0 6.44 6.44z"/></g></g></svg>