<svg xmlns="http://www.w3.org/2000/svg" xmlns:xlink="http://www.w3.org/1999/xlink" viewBox="0 0 500 427.83"><defs><style>.cls-1{isolation:isolate;}.cls-2,.cls-3,.cls-48,.cls-75,.cls-93,.cls-97{mix-blend-mode:multiply;}.cls-2{fill:url(#Degradado_sin_nombre_21);}.cls-3{fill:#210656;}.cls-3,.cls-92{opacity:0.28;}.cls-4{fill:#d0ddff;}.cls-5{fill:#d8f4ff;}.cls-6{fill:#e6ffff;}.cls-7{fill:#bec0e9;}.cls-8{fill:#000039;}.cls-9{fill:#003284;}.cls-10{fill:#93a5c9;}.cls-11{fill:#a3bad7;}.cls-12,.cls-71,.cls-72,.cls-92{fill:#fff;}.cls-13{fill:#bbc5e1;}.cls-14{fill:#e1f1ff;}.cls-15{fill:#e5f0ff;}.cls-16{fill:#e0f3ff;}.cls-17{fill:#b6bad7;}.cls-18,.cls-73{fill:#00a3ff;}.cls-19{fill:#35efff;}.cls-20{fill:#00d4ff;}.cls-21{fill:#0075ec;}.cls-22{fill:#ffe200;}.cls-23{fill:#ffff4e;}.cls-24{fill:#ff2149;}.cls-25{fill:#ff528a;}.cls-26{fill:#0fe490;}.cls-27{fill:#45ffc6;}.cls-28{fill:#1fffc6;}.cls-29{fill:#0042ff;}.cls-30{fill:#ff3edd;}.cls-31{fill:#ff497e;}.cls-32{fill:#ffc400;}.cls-33{opacity:0.34;}.cls-34{fill:#ff1754;}.cls-35{fill:#ff3faa;}.cls-36{fill:#b5112b;}.cls-37{fill:#ff478b;}.cls-38{fill:#df093c;}.cls-39{fill:#dfe4ff;}.cls-40{fill:#c5c4e0;}.cls-41{fill:#ffd300;}.cls-42{fill:#02fd00;}.cls-43{fill:#d6deeb;}.cls-44{fill:#bccacb;}.cls-45{fill:#e9f1eb;}.cls-46{fill:#e6f8ff;}.cls-47,.cls-48{fill:#d1dded;}.cls-49{fill:#682118;}.cls-50{fill:#9a2f18;}.cls-51{fill:#7f2e18;}.cls-52{fill:#b45a18;}.cls-53{fill:#9b4318;}.cls-54{fill:#c35e18;}.cls-55{fill:#b45018;}.cls-56{fill:#dc6218;}.cls-57{fill:url(#Degradado_sin_nombre_30);}.cls-58{fill:url(#Degradado_sin_nombre_30-2);}.cls-59{fill:url(#Degradado_sin_nombre_30-3);}.cls-60{fill:#ff3967;}.cls-61{fill:#d1f0ff;}.cls-62{fill:#bdc6f4;}.cls-63{fill:#9a9cdf;}.cls-64{fill:#ffeeb1;}.cls-65{fill:#ff0;}.cls-66{fill:#ffd100;}.cls-67{fill:#ffa600;}.cls-68{fill:#ffdb00;}.cls-69{fill:#ffff6c;}.cls-70{fill:#ffb800;}.cls-71{opacity:0.2;}.cls-72{opacity:0.53;}.cls-73,.cls-76{opacity:0.3;}.cls-74{fill:#00e3ff;opacity:0.4;}.cls-75,.cls-93,.cls-97{opacity:0.81;}.cls-75{fill:url(#Degradado_sin_nombre_28);}.cls-76{fill:#002ab4;}.cls-77{fill:#ff2232;}.cls-78{fill:#ff787d;}.cls-79{fill:#b51413;}.cls-80{fill:#ffc500;}.cls-81{fill:#ffed00;}.cls-82{fill:#ff9700;}.cls-83{fill:#ffb100;}.cls-84{fill:#3dd376;}.cls-85{fill:#84fa9c;}.cls-86{fill:#1a9f58;}.cls-87,.cls-89,.cls-90,.cls-91{fill:none;stroke-linecap:round;stroke-linejoin:round;stroke-width:2px;}.cls-87{stroke:#12d77e;}.cls-88{fill:#12d77e;}.cls-89{stroke:#12ffff;}.cls-90{stroke:#ff3181;}.cls-91{stroke:#ffd000;}.cls-93{fill:url(#Degradado_sin_nombre_28-2);}.cls-94{fill:#12ffff;}.cls-95{fill:#ff3181;}.cls-96{fill:#ffd000;}.cls-97{fill:url(#Degradado_sin_nombre_28-3);}</style><linearGradient id="Degradado_sin_nombre_21" x1="250" y1="427.83" x2="250" y2="67.97" gradientUnits="userSpaceOnUse"><stop offset="0" stop-color="#fff" stop-opacity="0"/><stop offset="1" stop-color="#17083e"/></linearGradient><linearGradient id="Degradado_sin_nombre_30" x1="78.26" y1="259.44" x2="50.41" y2="231.58" gradientUnits="userSpaceOnUse"><stop offset="0" stop-color="#e6eeff" stop-opacity="0"/><stop offset="1" stop-color="#e6eeff"/></linearGradient><linearGradient id="Degradado_sin_nombre_30-2" x1="71.82" y1="267.5" x2="58.88" y2="254.55" xlink:href="#Degradado_sin_nombre_30"/><linearGradient id="Degradado_sin_nombre_30-3" x1="97.25" y1="271.2" x2="89.15" y2="263.1" xlink:href="#Degradado_sin_nombre_30"/><linearGradient id="Degradado_sin_nombre_28" x1="81.76" y1="78.75" x2="271.85" y2="78.75" gradientUnits="userSpaceOnUse"><stop offset="0" stop-color="#190849"/><stop offset="1" stop-color="#300877"/></linearGradient><linearGradient id="Degradado_sin_nombre_28-2" x1="301.54" y1="138.81" x2="392.65" y2="138.81" xlink:href="#Degradado_sin_nombre_28"/><linearGradient id="Degradado_sin_nombre_28-3" x1="363" y1="49.5" x2="433.03" y2="49.5" xlink:href="#Degradado_sin_nombre_28"/></defs><title>landing</title><g class="cls-1"><g id="OBJECTS"><polyline class="cls-2" points="133.71 197.84 0 427.83 500 427.83 369.29 193.37 277.74 193.37 202.14 206.36 133.71 197.84"/><rect class="cls-3" x="136.39" y="191.55" width="230.98" height="144.79" rx="13.64"/><rect class="cls-4" x="133.71" y="184.2" width="236.34" height="148.14" rx="13.64"/><path class="cls-5" d="M356.4,402.66h-209A13.64,13.64,0,0,1,133.71,389v1.84a13.65,13.65,0,0,0,13.64,13.65H356.4A13.64,13.64,0,0,0,370,390.86V389A13.64,13.64,0,0,1,356.4,402.66Z" transform="translate(0 -72.17)"/><rect class="cls-6" x="152.79" y="200.11" width="198.17" height="87.23" rx="4.81"/><rect class="cls-7" x="152.79" y="200.11" width="198.17" height="85.88" rx="4.81"/><path class="cls-8" d="M239.72,339.27h9.59a1,1,0,0,0,1-1v-8.81a1,1,0,0,0-1-1h-9.59a1,1,0,0,0-1,1v8.81A1,1,0,0,0,239.72,339.27Zm-15.72,0h9.58a1,1,0,0,0,1-1v-8.81a1,1,0,0,0-1-1H224a1,1,0,0,0-1,1v8.81A1,1,0,0,0,224,339.27Zm-62.9-41.56h9.59a1,1,0,0,0,1-1V287.9a1,1,0,0,0-1-1H161.1a1,1,0,0,0-1,1v8.81A1,1,0,0,0,161.1,297.71ZM224,310.79h9.58a1,1,0,0,0,1-1V301a1,1,0,0,0-1-1H224a1,1,0,0,0-1,1v8.81A1,1,0,0,0,224,310.79ZM224,325h9.58a1,1,0,0,0,1-1v-8.81a1,1,0,0,0-1-1H224a1,1,0,0,0-1,1V324A1,1,0,0,0,224,325ZM224,285h9.58a1,1,0,0,0,1-1v-4.62a1,1,0,0,0-1-1H224a1,1,0,0,0-1,1V284A1,1,0,0,0,224,285Zm0,12.74h9.58a1,1,0,0,0,1-1V287.9a1,1,0,0,0-1-1H224a1,1,0,0,0-1,1v8.81A1,1,0,0,0,224,297.71ZM161.1,285h9.59a1,1,0,0,0,1-1v-4.62a1,1,0,0,0-1-1H161.1a1,1,0,0,0-1,1V284A1,1,0,0,0,161.1,285Zm25.31,15H161.1a1,1,0,0,0-1,1v8.81a1,1,0,0,0,1,1h25.31a1,1,0,0,0,1-1V301A1,1,0,0,0,186.41,300Zm0,14.24h-9.58a1,1,0,0,0-1,1V324a1,1,0,0,0,1,1h9.58a1,1,0,0,0,1-1v-8.81A1,1,0,0,0,186.41,314.22Zm-15.72,14.24H161.1a1,1,0,0,0-1,1v8.81a1,1,0,0,0,1,1h9.59a1,1,0,0,0,1-1v-8.81A1,1,0,0,0,170.69,328.46Zm15.72-41.56h-9.58a1,1,0,0,0-1,1v8.81a1,1,0,0,0,1,1h9.58a1,1,0,0,0,1-1V287.9A1,1,0,0,0,186.41,286.9Zm0,41.56h-9.58a1,1,0,0,0-1,1v8.81a1,1,0,0,0,1,1h9.58a1,1,0,0,0,1-1v-8.81A1,1,0,0,0,186.41,328.46Zm-15.72-14.24H161.1a1,1,0,0,0-1,1V324a1,1,0,0,0,1,1h9.59a1,1,0,0,0,1-1v-8.81A1,1,0,0,0,170.69,314.22Zm15.72,28.48h-9.58a1,1,0,0,0-1,1v8.81a1,1,0,0,0,1,1h9.58a1,1,0,0,0,1-1V343.7A1,1,0,0,0,186.41,342.7ZM271.17,325h9.58a1,1,0,0,0,1-1v-8.81a1,1,0,0,0-1-1h-9.58a1,1,0,0,0-1,1V324A1,1,0,0,0,271.17,325Zm-31.45,0h9.59a1,1,0,0,0,1-1v-8.81a1,1,0,0,0-1-1h-9.59a1,1,0,0,0-1,1V324A1,1,0,0,0,239.72,325Zm31.45-14.24h9.58a1,1,0,0,0,1-1V301a1,1,0,0,0-1-1h-9.58a1,1,0,0,0-1,1v8.81A1,1,0,0,0,271.17,310.79ZM255.44,285H265a1,1,0,0,0,1-1v-4.62a1,1,0,0,0-1-1h-9.59a1,1,0,0,0-1,1V284A1,1,0,0,0,255.44,285Zm15.73,54.3h9.58a1,1,0,0,0,1-1v-8.81a1,1,0,0,0-1-1h-9.58a1,1,0,0,0-1,1v8.81A1,1,0,0,0,271.17,339.27ZM318.34,285h9.59a1,1,0,0,0,1-1v-4.62a1,1,0,0,0-1-1h-9.59a1,1,0,0,0-1,1V284A1,1,0,0,0,318.34,285Zm-47.17,0h9.58a1,1,0,0,0,1-1v-4.62a1,1,0,0,0-1-1h-9.58a1,1,0,0,0-1,1V284A1,1,0,0,0,271.17,285Zm0,12.74h9.58a1,1,0,0,0,1-1V287.9a1,1,0,0,0-1-1h-9.58a1,1,0,0,0-1,1v8.81A1,1,0,0,0,271.17,297.71Zm-84.76-19.36h-9.58a1,1,0,0,0-1,1V284a1,1,0,0,0,1,1h9.58a1,1,0,0,0,1-1v-4.62A1,1,0,0,0,186.41,278.35Zm53.31,19.36h9.59a1,1,0,0,0,1-1V287.9a1,1,0,0,0-1-1h-9.59a1,1,0,0,0-1,1v8.81A1,1,0,0,0,239.72,297.71Zm15.72,0H265a1,1,0,0,0,1-1V287.9a1,1,0,0,0-1-1h-9.59a1,1,0,0,0-1,1v8.81A1,1,0,0,0,255.44,297.71Zm-15.72,13.08h9.59a1,1,0,0,0,1-1V301a1,1,0,0,0-1-1h-9.59a1,1,0,0,0-1,1v8.81A1,1,0,0,0,239.72,310.79Zm0-25.82h9.59a1,1,0,0,0,1-1v-4.62a1,1,0,0,0-1-1h-9.59a1,1,0,0,0-1,1V284A1,1,0,0,0,239.72,285Zm15.72,54.3H265a1,1,0,0,0,1-1v-8.81a1,1,0,0,0-1-1h-9.59a1,1,0,0,0-1,1v8.81A1,1,0,0,0,255.44,339.27Zm0-28.48H265a1,1,0,0,0,1-1V301a1,1,0,0,0-1-1h-9.59a1,1,0,0,0-1,1v8.81A1,1,0,0,0,255.44,310.79Zm0,14.24H265a1,1,0,0,0,1-1v-8.81a1,1,0,0,0-1-1h-9.59a1,1,0,0,0-1,1V324A1,1,0,0,0,255.44,325ZM170.69,342.7H161.1a1,1,0,0,0-1,1v8.81a1,1,0,0,0,1,1h9.59a1,1,0,0,0,1-1V343.7A1,1,0,0,0,170.69,342.7ZM312.2,314.22h-9.58a1,1,0,0,0-1,1V324a1,1,0,0,0,1,1h9.58a1,1,0,0,0,1-1v-8.81A1,1,0,0,0,312.2,314.22Zm0-14.24h-9.58a1,1,0,0,0-1,1v8.81a1,1,0,0,0,1,1h9.58a1,1,0,0,0,1-1V301A1,1,0,0,0,312.2,300Zm15.73,42.72h-9.59a1,1,0,0,0-1,1v8.81a1,1,0,0,0,1,1h9.59a1,1,0,0,0,1-1V343.7A1,1,0,0,0,327.93,342.7ZM312.2,278.35h-9.58a1,1,0,0,0-1,1V284a1,1,0,0,0,1,1h9.58a1,1,0,0,0,1-1v-4.62A1,1,0,0,0,312.2,278.35Zm0,8.55h-9.58a1,1,0,0,0-1,1v8.81a1,1,0,0,0,1,1h9.58a1,1,0,0,0,1-1V287.9A1,1,0,0,0,312.2,286.9Zm-15.72,0h-9.59a1,1,0,0,0-1,1v8.81a1,1,0,0,0,1,1h9.59a1,1,0,0,0,1-1V287.9A1,1,0,0,0,296.48,286.9Zm0-8.55h-9.59a1,1,0,0,0-1,1V284a1,1,0,0,0,1,1h9.59a1,1,0,0,0,1-1v-4.62A1,1,0,0,0,296.48,278.35ZM312.2,342.7h-9.58a1,1,0,0,0-1,1v8.81a1,1,0,0,0,1,1h9.58a1,1,0,0,0,1-1V343.7A1,1,0,0,0,312.2,342.7Zm0-14.24h-9.58a1,1,0,0,0-1,1v8.81a1,1,0,0,0,1,1h9.58a1,1,0,0,0,1-1v-8.81A1,1,0,0,0,312.2,328.46Zm31.45-41.56H318.34a1,1,0,0,0-1,1v8.81a1,1,0,0,0,1,1h25.31a1,1,0,0,0,1-1V287.9A1,1,0,0,0,343.65,286.9Zm0-8.55h-9.59a1,1,0,0,0-1,1V284a1,1,0,0,0,1,1h9.59a1,1,0,0,0,1-1v-4.62A1,1,0,0,0,343.65,278.35Zm0,21.63H318.34a1,1,0,0,0-1,1v8.81a1,1,0,0,0,1,1h13.72a1,1,0,0,1,1,1V324a1,1,0,0,0,1,1h9.59a1,1,0,0,0,1-1V301A1,1,0,0,0,343.65,300ZM202.14,342.7h-9.59a1,1,0,0,0-1,1v8.81a1,1,0,0,0,1,1h9.59a1,1,0,0,0,1-1V343.7A1,1,0,0,0,202.14,342.7Zm125.79-14.24h-9.59a1,1,0,0,0-1,1v8.81a1,1,0,0,0,1,1h9.59a1,1,0,0,0,1-1v-8.81A1,1,0,0,0,327.93,328.46Zm0-14.24h-9.59a1,1,0,0,0-1,1V324a1,1,0,0,0,1,1h9.59a1,1,0,0,0,1-1v-8.81A1,1,0,0,0,327.93,314.22Zm15.72,28.48h-9.59a1,1,0,0,0-1,1v8.81a1,1,0,0,0,1,1h9.59a1,1,0,0,0,1-1V343.7A1,1,0,0,0,343.65,342.7Zm0-14.24h-9.59a1,1,0,0,0-1,1v8.81a1,1,0,0,0,1,1h9.59a1,1,0,0,0,1-1v-8.81A1,1,0,0,0,343.65,328.46Zm-125.79,0h-9.59a1,1,0,0,0-1,1v8.81a1,1,0,0,0,1,1h9.59a1,1,0,0,0,1-1v-8.81A1,1,0,0,0,217.86,328.46ZM202.14,286.9h-9.59a1,1,0,0,0-1,1v8.81a1,1,0,0,0,1,1h9.59a1,1,0,0,0,1-1V287.9A1,1,0,0,0,202.14,286.9Zm15.72,55.8h-9.59a1,1,0,0,0-1,1v8.81a1,1,0,0,0,1,1h9.59a1,1,0,0,0,1-1V343.7A1,1,0,0,0,217.86,342.7Zm-15.72-64.35h-9.59a1,1,0,0,0-1,1V284a1,1,0,0,0,1,1h9.59a1,1,0,0,0,1-1v-4.62A1,1,0,0,0,202.14,278.35ZM296.48,300h-9.59a1,1,0,0,0-1,1v8.81a1,1,0,0,0,1,1h9.59a1,1,0,0,0,1-1V301A1,1,0,0,0,296.48,300Zm-94.34,28.48h-9.59a1,1,0,0,0-1,1v8.81a1,1,0,0,0,1,1h9.59a1,1,0,0,0,1-1v-8.81A1,1,0,0,0,202.14,328.46Zm0-14.24h-9.59a1,1,0,0,0-1,1V324a1,1,0,0,0,1,1h9.59a1,1,0,0,0,1-1v-8.81A1,1,0,0,0,202.14,314.22Zm0-14.24h-9.59a1,1,0,0,0-1,1v8.81a1,1,0,0,0,1,1h9.59a1,1,0,0,0,1-1V301A1,1,0,0,0,202.14,300Zm15.72,14.24h-9.59a1,1,0,0,0-1,1V324a1,1,0,0,0,1,1h9.59a1,1,0,0,0,1-1v-8.81A1,1,0,0,0,217.86,314.22Zm78.62,0h-9.59a1,1,0,0,0-1,1V324a1,1,0,0,0,1,1h9.59a1,1,0,0,0,1-1v-8.81A1,1,0,0,0,296.48,314.22Zm0,28.48H224a1,1,0,0,0-1,1v8.81a1,1,0,0,0,1,1h72.48a1,1,0,0,0,1-1V343.7A1,1,0,0,0,296.48,342.7Zm0-14.24h-9.59a1,1,0,0,0-1,1v8.81a1,1,0,0,0,1,1h9.59a1,1,0,0,0,1-1v-8.81A1,1,0,0,0,296.48,328.46ZM217.86,300h-9.59a1,1,0,0,0-1,1v8.81a1,1,0,0,0,1,1h9.59a1,1,0,0,0,1-1V301A1,1,0,0,0,217.86,300Zm0-13.08h-9.59a1,1,0,0,0-1,1v8.81a1,1,0,0,0,1,1h9.59a1,1,0,0,0,1-1V287.9A1,1,0,0,0,217.86,286.9Zm0-8.55h-9.59a1,1,0,0,0-1,1V284a1,1,0,0,0,1,1h9.59a1,1,0,0,0,1-1v-4.62A1,1,0,0,0,217.86,278.35Z" transform="translate(0 -72.17)"/><path class="cls-9" d="M161.1,278.53h9.59a1,1,0,0,1,1,1v-.18a1,1,0,0,0-1-1H161.1a1,1,0,0,0-1,1v.18A1,1,0,0,1,161.1,278.53Z" transform="translate(0 -72.17)"/><path class="cls-9" d="M161.1,287.08h9.59a1,1,0,0,1,1,1v-.18a1,1,0,0,0-1-1H161.1a1,1,0,0,0-1,1v.18A1,1,0,0,1,161.1,287.08Z" transform="translate(0 -72.17)"/><path class="cls-9" d="M224,328.64h9.58a1,1,0,0,1,1,1v-.18a1,1,0,0,0-1-1H224a1,1,0,0,0-1,1v.18A1,1,0,0,1,224,328.64Z" transform="translate(0 -72.17)"/><path class="cls-9" d="M224,300.17h9.58a1,1,0,0,1,1,1V301a1,1,0,0,0-1-1H224a1,1,0,0,0-1,1v.19A1,1,0,0,1,224,300.17Z" transform="translate(0 -72.17)"/><path class="cls-9" d="M224,287.08h9.58a1,1,0,0,1,1,1v-.18a1,1,0,0,0-1-1H224a1,1,0,0,0-1,1v.18A1,1,0,0,1,224,287.08Z" transform="translate(0 -72.17)"/><path class="cls-9" d="M224,314.4h9.58a1,1,0,0,1,1,1v-.18a1,1,0,0,0-1-1H224a1,1,0,0,0-1,1v.18A1,1,0,0,1,224,314.4Z" transform="translate(0 -72.17)"/><path class="cls-9" d="M170.69,342.7H161.1a1,1,0,0,0-1,1v.18a1,1,0,0,1,1-1h9.59a1,1,0,0,1,1,1v-.18A1,1,0,0,0,170.69,342.7Z" transform="translate(0 -72.17)"/><path class="cls-9" d="M186.41,314.22h-9.58a1,1,0,0,0-1,1v.18a1,1,0,0,1,1-1h9.58a1,1,0,0,1,1,1v-.18A1,1,0,0,0,186.41,314.22Z" transform="translate(0 -72.17)"/><path class="cls-9" d="M170.69,328.46H161.1a1,1,0,0,0-1,1v.18a1,1,0,0,1,1-1h9.59a1,1,0,0,1,1,1v-.18A1,1,0,0,0,170.69,328.46Z" transform="translate(0 -72.17)"/><path class="cls-9" d="M224,278.53h9.58a1,1,0,0,1,1,1v-.18a1,1,0,0,0-1-1H224a1,1,0,0,0-1,1v.18A1,1,0,0,1,224,278.53Z" transform="translate(0 -72.17)"/><path class="cls-9" d="M186.41,286.9h-9.58a1,1,0,0,0-1,1v.18a1,1,0,0,1,1-1h9.58a1,1,0,0,1,1,1v-.18A1,1,0,0,0,186.41,286.9Z" transform="translate(0 -72.17)"/><path class="cls-9" d="M186.41,300H161.1a1,1,0,0,0-1,1v.19a1,1,0,0,1,1-1h25.31a1,1,0,0,1,1,1V301A1,1,0,0,0,186.41,300Z" transform="translate(0 -72.17)"/><path class="cls-9" d="M170.69,314.22H161.1a1,1,0,0,0-1,1v.18a1,1,0,0,1,1-1h9.59a1,1,0,0,1,1,1v-.18A1,1,0,0,0,170.69,314.22Z" transform="translate(0 -72.17)"/><path class="cls-9" d="M186.41,342.7h-9.58a1,1,0,0,0-1,1v.18a1,1,0,0,1,1-1h9.58a1,1,0,0,1,1,1v-.18A1,1,0,0,0,186.41,342.7Z" transform="translate(0 -72.17)"/><path class="cls-9" d="M186.41,328.46h-9.58a1,1,0,0,0-1,1v.18a1,1,0,0,1,1-1h9.58a1,1,0,0,1,1,1v-.18A1,1,0,0,0,186.41,328.46Z" transform="translate(0 -72.17)"/><path class="cls-9" d="M271.17,328.64h9.58a1,1,0,0,1,1,1v-.18a1,1,0,0,0-1-1h-9.58a1,1,0,0,0-1,1v.18A1,1,0,0,1,271.17,328.64Z" transform="translate(0 -72.17)"/><path class="cls-9" d="M271.17,300.17h9.58a1,1,0,0,1,1,1V301a1,1,0,0,0-1-1h-9.58a1,1,0,0,0-1,1v.19A1,1,0,0,1,271.17,300.17Z" transform="translate(0 -72.17)"/><path class="cls-9" d="M271.17,314.4h9.58a1,1,0,0,1,1,1v-.18a1,1,0,0,0-1-1h-9.58a1,1,0,0,0-1,1v.18A1,1,0,0,1,271.17,314.4Z" transform="translate(0 -72.17)"/><path class="cls-9" d="M186.41,278.35h-9.58a1,1,0,0,0-1,1v.18a1,1,0,0,1,1-1h9.58a1,1,0,0,1,1,1v-.18A1,1,0,0,0,186.41,278.35Z" transform="translate(0 -72.17)"/><path class="cls-9" d="M255.44,278.53H265a1,1,0,0,1,1,1v-.18a1,1,0,0,0-1-1h-9.59a1,1,0,0,0-1,1v.18A1,1,0,0,1,255.44,278.53Z" transform="translate(0 -72.17)"/><path class="cls-9" d="M255.44,287.08H265a1,1,0,0,1,1,1v-.18a1,1,0,0,0-1-1h-9.59a1,1,0,0,0-1,1v.18A1,1,0,0,1,255.44,287.08Z" transform="translate(0 -72.17)"/><path class="cls-9" d="M318.34,278.53h9.59a1,1,0,0,1,1,1v-.18a1,1,0,0,0-1-1h-9.59a1,1,0,0,0-1,1v.18A1,1,0,0,1,318.34,278.53Z" transform="translate(0 -72.17)"/><path class="cls-9" d="M271.17,287.08h9.58a1,1,0,0,1,1,1v-.18a1,1,0,0,0-1-1h-9.58a1,1,0,0,0-1,1v.18A1,1,0,0,1,271.17,287.08Z" transform="translate(0 -72.17)"/><path class="cls-9" d="M271.17,278.53h9.58a1,1,0,0,1,1,1v-.18a1,1,0,0,0-1-1h-9.58a1,1,0,0,0-1,1v.18A1,1,0,0,1,271.17,278.53Z" transform="translate(0 -72.17)"/><path class="cls-9" d="M255.44,300.17H265a1,1,0,0,1,1,1V301a1,1,0,0,0-1-1h-9.59a1,1,0,0,0-1,1v.19A1,1,0,0,1,255.44,300.17Z" transform="translate(0 -72.17)"/><path class="cls-9" d="M239.72,287.08h9.59a1,1,0,0,1,1,1v-.18a1,1,0,0,0-1-1h-9.59a1,1,0,0,0-1,1v.18A1,1,0,0,1,239.72,287.08Z" transform="translate(0 -72.17)"/><path class="cls-9" d="M239.72,300.17h9.59a1,1,0,0,1,1,1V301a1,1,0,0,0-1-1h-9.59a1,1,0,0,0-1,1v.19A1,1,0,0,1,239.72,300.17Z" transform="translate(0 -72.17)"/><path class="cls-9" d="M239.72,314.4h9.59a1,1,0,0,1,1,1v-.18a1,1,0,0,0-1-1h-9.59a1,1,0,0,0-1,1v.18A1,1,0,0,1,239.72,314.4Z" transform="translate(0 -72.17)"/><path class="cls-9" d="M255.44,314.4H265a1,1,0,0,1,1,1v-.18a1,1,0,0,0-1-1h-9.59a1,1,0,0,0-1,1v.18A1,1,0,0,1,255.44,314.4Z" transform="translate(0 -72.17)"/><path class="cls-9" d="M239.72,328.64h9.59a1,1,0,0,1,1,1v-.18a1,1,0,0,0-1-1h-9.59a1,1,0,0,0-1,1v.18A1,1,0,0,1,239.72,328.64Z" transform="translate(0 -72.17)"/><path class="cls-9" d="M239.72,278.53h9.59a1,1,0,0,1,1,1v-.18a1,1,0,0,0-1-1h-9.59a1,1,0,0,0-1,1v.18A1,1,0,0,1,239.72,278.53Z" transform="translate(0 -72.17)"/><path class="cls-9" d="M255.44,328.64H265a1,1,0,0,1,1,1v-.18a1,1,0,0,0-1-1h-9.59a1,1,0,0,0-1,1v.18A1,1,0,0,1,255.44,328.64Z" transform="translate(0 -72.17)"/><path class="cls-9" d="M296.48,342.7H224a1,1,0,0,0-1,1v.18a1,1,0,0,1,1-1h72.48a1,1,0,0,1,1,1v-.18A1,1,0,0,0,296.48,342.7Z" transform="translate(0 -72.17)"/><path class="cls-9" d="M327.93,342.7h-9.59a1,1,0,0,0-1,1v.18a1,1,0,0,1,1-1h9.59a1,1,0,0,1,1,1v-.18A1,1,0,0,0,327.93,342.7Z" transform="translate(0 -72.17)"/><path class="cls-9" d="M312.2,278.35h-9.58a1,1,0,0,0-1,1v.18a1,1,0,0,1,1-1h9.58a1,1,0,0,1,1,1v-.18A1,1,0,0,0,312.2,278.35Z" transform="translate(0 -72.17)"/><path class="cls-9" d="M312.2,300h-9.58a1,1,0,0,0-1,1v.19a1,1,0,0,1,1-1h9.58a1,1,0,0,1,1,1V301A1,1,0,0,0,312.2,300Z" transform="translate(0 -72.17)"/><path class="cls-9" d="M312.2,286.9h-9.58a1,1,0,0,0-1,1v.18a1,1,0,0,1,1-1h9.58a1,1,0,0,1,1,1v-.18A1,1,0,0,0,312.2,286.9Z" transform="translate(0 -72.17)"/><path class="cls-9" d="M312.2,314.22h-9.58a1,1,0,0,0-1,1v.18a1,1,0,0,1,1-1h9.58a1,1,0,0,1,1,1v-.18A1,1,0,0,0,312.2,314.22Z" transform="translate(0 -72.17)"/><path class="cls-9" d="M312.2,342.7h-9.58a1,1,0,0,0-1,1v.18a1,1,0,0,1,1-1h9.58a1,1,0,0,1,1,1v-.18A1,1,0,0,0,312.2,342.7Z" transform="translate(0 -72.17)"/><path class="cls-9" d="M312.2,328.46h-9.58a1,1,0,0,0-1,1v.18a1,1,0,0,1,1-1h9.58a1,1,0,0,1,1,1v-.18A1,1,0,0,0,312.2,328.46Z" transform="translate(0 -72.17)"/><path class="cls-9" d="M343.65,278.35h-9.59a1,1,0,0,0-1,1v.18a1,1,0,0,1,1-1h9.59a1,1,0,0,1,1,1v-.18A1,1,0,0,0,343.65,278.35Z" transform="translate(0 -72.17)"/><path class="cls-9" d="M327.93,328.46h-9.59a1,1,0,0,0-1,1v.18a1,1,0,0,1,1-1h9.59a1,1,0,0,1,1,1v-.18A1,1,0,0,0,327.93,328.46Z" transform="translate(0 -72.17)"/><path class="cls-9" d="M296.48,278.35h-9.59a1,1,0,0,0-1,1v.18a1,1,0,0,1,1-1h9.59a1,1,0,0,1,1,1v-.18A1,1,0,0,0,296.48,278.35Z" transform="translate(0 -72.17)"/><path class="cls-9" d="M343.65,300H318.34a1,1,0,0,0-1,1v.19a1,1,0,0,1,1-1h25.31a1,1,0,0,1,1,1V301A1,1,0,0,0,343.65,300Z" transform="translate(0 -72.17)"/><path class="cls-9" d="M343.65,286.9H318.34a1,1,0,0,0-1,1v.18a1,1,0,0,1,1-1h25.31a1,1,0,0,1,1,1v-.18A1,1,0,0,0,343.65,286.9Z" transform="translate(0 -72.17)"/><path class="cls-9" d="M343.65,328.46h-9.59a1,1,0,0,0-1,1v.18a1,1,0,0,1,1-1h9.59a1,1,0,0,1,1,1v-.18A1,1,0,0,0,343.65,328.46Z" transform="translate(0 -72.17)"/><path class="cls-9" d="M327.93,314.22h-9.59a1,1,0,0,0-1,1v.18a1,1,0,0,1,1-1h9.59a1,1,0,0,1,1,1v-.18A1,1,0,0,0,327.93,314.22Z" transform="translate(0 -72.17)"/><path class="cls-9" d="M343.65,342.7h-9.59a1,1,0,0,0-1,1v.18a1,1,0,0,1,1-1h9.59a1,1,0,0,1,1,1v-.18A1,1,0,0,0,343.65,342.7Z" transform="translate(0 -72.17)"/><path class="cls-9" d="M217.86,328.46h-9.59a1,1,0,0,0-1,1v.18a1,1,0,0,1,1-1h9.59a1,1,0,0,1,1,1v-.18A1,1,0,0,0,217.86,328.46Z" transform="translate(0 -72.17)"/><path class="cls-9" d="M202.14,278.35h-9.59a1,1,0,0,0-1,1v.18a1,1,0,0,1,1-1h9.59a1,1,0,0,1,1,1v-.18A1,1,0,0,0,202.14,278.35Z" transform="translate(0 -72.17)"/><path class="cls-9" d="M217.86,342.7h-9.59a1,1,0,0,0-1,1v.18a1,1,0,0,1,1-1h9.59a1,1,0,0,1,1,1v-.18A1,1,0,0,0,217.86,342.7Z" transform="translate(0 -72.17)"/><path class="cls-9" d="M202.14,342.7h-9.59a1,1,0,0,0-1,1v.18a1,1,0,0,1,1-1h9.59a1,1,0,0,1,1,1v-.18A1,1,0,0,0,202.14,342.7Z" transform="translate(0 -72.17)"/><path class="cls-9" d="M202.14,286.9h-9.59a1,1,0,0,0-1,1v.18a1,1,0,0,1,1-1h9.59a1,1,0,0,1,1,1v-.18A1,1,0,0,0,202.14,286.9Z" transform="translate(0 -72.17)"/><path class="cls-9" d="M202.14,328.46h-9.59a1,1,0,0,0-1,1v.18a1,1,0,0,1,1-1h9.59a1,1,0,0,1,1,1v-.18A1,1,0,0,0,202.14,328.46Z" transform="translate(0 -72.17)"/><path class="cls-9" d="M202.14,300h-9.59a1,1,0,0,0-1,1v.19a1,1,0,0,1,1-1h9.59a1,1,0,0,1,1,1V301A1,1,0,0,0,202.14,300Z" transform="translate(0 -72.17)"/><path class="cls-9" d="M202.14,314.22h-9.59a1,1,0,0,0-1,1v.18a1,1,0,0,1,1-1h9.59a1,1,0,0,1,1,1v-.18A1,1,0,0,0,202.14,314.22Z" transform="translate(0 -72.17)"/><path class="cls-9" d="M296.48,314.22h-9.59a1,1,0,0,0-1,1v.18a1,1,0,0,1,1-1h9.59a1,1,0,0,1,1,1v-.18A1,1,0,0,0,296.48,314.22Z" transform="translate(0 -72.17)"/><path class="cls-9" d="M296.48,328.46h-9.59a1,1,0,0,0-1,1v.18a1,1,0,0,1,1-1h9.59a1,1,0,0,1,1,1v-.18A1,1,0,0,0,296.48,328.46Z" transform="translate(0 -72.17)"/><path class="cls-9" d="M296.48,286.9h-9.59a1,1,0,0,0-1,1v.18a1,1,0,0,1,1-1h9.59a1,1,0,0,1,1,1v-.18A1,1,0,0,0,296.48,286.9Z" transform="translate(0 -72.17)"/><path class="cls-9" d="M296.48,300h-9.59a1,1,0,0,0-1,1v.19a1,1,0,0,1,1-1h9.59a1,1,0,0,1,1,1V301A1,1,0,0,0,296.48,300Z" transform="translate(0 -72.17)"/><path class="cls-9" d="M217.86,278.35h-9.59a1,1,0,0,0-1,1v.18a1,1,0,0,1,1-1h9.59a1,1,0,0,1,1,1v-.18A1,1,0,0,0,217.86,278.35Z" transform="translate(0 -72.17)"/><path class="cls-9" d="M217.86,300h-9.59a1,1,0,0,0-1,1v.19a1,1,0,0,1,1-1h9.59a1,1,0,0,1,1,1V301A1,1,0,0,0,217.86,300Z" transform="translate(0 -72.17)"/><path class="cls-9" d="M217.86,286.9h-9.59a1,1,0,0,0-1,1v.18a1,1,0,0,1,1-1h9.59a1,1,0,0,1,1,1v-.18A1,1,0,0,0,217.86,286.9Z" transform="translate(0 -72.17)"/><path class="cls-9" d="M217.86,314.22h-9.59a1,1,0,0,0-1,1v.18a1,1,0,0,1,1-1h9.59a1,1,0,0,1,1,1v-.18A1,1,0,0,0,217.86,314.22Z" transform="translate(0 -72.17)"/><rect class="cls-6" x="221.92" y="290.68" width="59.43" height="34.81" rx="4.81"/><rect class="cls-7" x="221.92" y="290.68" width="59.43" height="34.5" rx="4.81"/><rect class="cls-6" x="221.92" y="318.83" width="59.43" height="0.69"/><rect class="cls-10" x="221.92" y="318.67" width="59.43" height="0.69"/><path class="cls-11" d="M364.79,254H139a5.1,5.1,0,0,1-4.8-3.36L113.72,198a6.1,6.1,0,0,1,6.1-7.15H383.93a6.34,6.34,0,0,1,6,7.81l-20.39,52A5.09,5.09,0,0,1,364.79,254Z" transform="translate(0 -72.17)"/><path class="cls-12" d="M119.82,191H383.93a6.24,6.24,0,0,1,6.17,6.29,6.24,6.24,0,0,0-6.17-6.45H119.82a6.06,6.06,0,0,0-6.16,6.4A6.06,6.06,0,0,1,119.82,191Z" transform="translate(0 -72.17)"/><path class="cls-13" d="M365.61,256.36H138.14a5.14,5.14,0,0,1-4.83-3.39L114,199.65a5.13,5.13,0,0,1,4.83-6.88h266a5.13,5.13,0,0,1,4.83,6.88L370.44,253A5.14,5.14,0,0,1,365.61,256.36Z" transform="translate(0 -72.17)"/><path class="cls-8" d="M384.89,192.77h-266a5.13,5.13,0,0,0-4.83,6.88l18.45,51H371.27l18.45-51A5.13,5.13,0,0,0,384.89,192.77Z" transform="translate(0 -72.17)"/><polygon class="cls-14" points="119.47 126.82 137 176.72 365.74 176.72 384.19 126.82 119.47 126.82"/><path class="cls-12" d="M376.28,233.57l13.48-34.36a5.13,5.13,0,0,0-4.87-6.75h-266a5.14,5.14,0,0,0-5.12,5.63l12.89,33.15L115,199a4.13,4.13,0,0,1,3.89-5.54h266a4.13,4.13,0,0,1,3.89,5.54Z" transform="translate(0 -72.17)"/><path class="cls-15" d="M384.89,193.77a4.13,4.13,0,0,1,3.89,5.54L369.5,252.63a4.16,4.16,0,0,1-3.89,2.73H138.14a4.16,4.16,0,0,1-3.89-2.73L115,199.31a4.13,4.13,0,0,1,3.89-5.54h266m0-1h-266a5.13,5.13,0,0,0-4.83,6.88L133.31,253a5.14,5.14,0,0,0,4.83,3.39H365.61a5.14,5.14,0,0,0,4.83-3.39l19.28-53.32a5.13,5.13,0,0,0-4.83-6.88Z" transform="translate(0 -72.17)"/><ellipse class="cls-16" cx="352.42" cy="193.54" rx="5.13" ry="5.25"/><circle class="cls-17" cx="352.42" cy="193.42" r="5.13"/><circle class="cls-4" cx="352.42" cy="193.42" r="4.22"/><path class="cls-16" d="M352.42,269.7a4.21,4.21,0,0,1-4.21-4.17v.06a4.22,4.22,0,0,0,8.43,0s0,0,0-.06A4.21,4.21,0,0,1,352.42,269.7Z" transform="translate(0 -72.17)"/><polygon class="cls-18" points="124.18 140.21 379.24 140.21 384.19 126.82 119.47 126.82 124.18 140.21"/><polygon class="cls-19" points="384.03 127.27 384.19 126.82 119.47 126.82 119.63 127.27 384.03 127.27"/><ellipse class="cls-20" cx="129.24" cy="206.01" rx="3.01" ry="4.13" transform="translate(-113.31 116.23) rotate(-53.74)"/><ellipse class="cls-21" cx="129.22" cy="205.93" rx="2.98" ry="4.09" transform="matrix(0.56, -0.83, 0.83, 0.56, -113.74, 125.17)"/><ellipse class="cls-22" cx="129.22" cy="205.93" rx="2.1" ry="2.88" transform="translate(-113.74 125.17) rotate(-55.87)"/><path class="cls-23" d="M128.49,203.65a3.69,3.69,0,0,1,3.29,2.33.11.11,0,0,1,0,0,3.7,3.7,0,0,0-3.31-2.37,1.73,1.73,0,0,0-1.79,2.37.08.08,0,0,1,0,0A1.73,1.73,0,0,1,128.49,203.65Z" transform="translate(0 -72.17)"/><ellipse class="cls-20" cx="138.53" cy="206.01" rx="3.01" ry="4.13" transform="translate(-109.52 123.71) rotate(-53.74)"/><ellipse class="cls-21" cx="138.51" cy="205.93" rx="2.98" ry="4.09" transform="translate(-109.67 132.86) rotate(-55.87)"/><ellipse class="cls-24" cx="138.51" cy="205.93" rx="2.1" ry="2.88" transform="translate(-109.67 132.86) rotate(-55.87)"/><path class="cls-25" d="M137.77,203.65a3.68,3.68,0,0,1,3.29,2.33.07.07,0,0,0,0,0,3.67,3.67,0,0,0-3.31-2.37,1.73,1.73,0,0,0-1.78,2.37l0,0A1.72,1.72,0,0,1,137.77,203.65Z" transform="translate(0 -72.17)"/><ellipse class="cls-20" cx="147.82" cy="206.01" rx="3.01" ry="4.13" transform="translate(-105.72 131.2) rotate(-53.74)"/><ellipse class="cls-21" cx="147.79" cy="205.93" rx="2.98" ry="4.09" transform="translate(-105.59 140.55) rotate(-55.87)"/><ellipse class="cls-26" cx="147.79" cy="205.93" rx="2.1" ry="2.88" transform="translate(-105.59 140.55) rotate(-55.87)"/><path class="cls-27" d="M147.06,203.65a3.68,3.68,0,0,1,3.29,2.33.07.07,0,0,0,0,0,3.67,3.67,0,0,0-3.31-2.37,1.73,1.73,0,0,0-1.78,2.37l0,0A1.72,1.72,0,0,1,147.06,203.65Z" transform="translate(0 -72.17)"/><line class="cls-28" x1="255.41" y1="152.4" x2="255.41" y2="147.63"/><path class="cls-28" d="M240,221.29H135.85a1.5,1.5,0,0,1,0-3H240a1.5,1.5,0,0,1,0,3Z" transform="translate(0 -72.17)"/><path class="cls-29" d="M260.24,221.29H248a1.5,1.5,0,0,1,0-3h12.2a1.5,1.5,0,0,1,0,3Z" transform="translate(0 -72.17)"/><path class="cls-28" d="M301.62,221.29H267.83a1.5,1.5,0,0,1,0-3h33.79a1.5,1.5,0,0,1,0,3Z" transform="translate(0 -72.17)"/><path class="cls-30" d="M323.13,221.29h-6.8a1.5,1.5,0,0,1,0-3h6.8a1.5,1.5,0,0,1,0,3Z" transform="translate(0 -72.17)"/><path class="cls-30" d="M334.8,221.29H328a1.5,1.5,0,0,1,0-3h6.8a1.5,1.5,0,0,1,0,3Z" transform="translate(0 -72.17)"/><path class="cls-29" d="M156.06,228.26h-17.6a1.5,1.5,0,0,1,0-3h17.6a1.5,1.5,0,0,1,0,3Z" transform="translate(0 -72.17)"/><path class="cls-28" d="M201.21,228.26H165.9a1.5,1.5,0,1,1,0-3h35.31a1.5,1.5,0,1,1,0,3Z" transform="translate(0 -72.17)"/><path class="cls-29" d="M270.17,228.26H211.25a1.5,1.5,0,0,1,0-3h58.92a1.5,1.5,0,0,1,0,3Z" transform="translate(0 -72.17)"/><path class="cls-31" d="M178.91,236.9H141.06a1.5,1.5,0,0,1,0-3h37.85a1.5,1.5,0,0,1,0,3Z" transform="translate(0 -72.17)"/><path class="cls-31" d="M191.55,236.9h-4.14a1.5,1.5,0,0,1,0-3h4.14a1.5,1.5,0,0,1,0,3Z" transform="translate(0 -72.17)"/><path class="cls-31" d="M207.27,236.9h-6.06a1.5,1.5,0,0,1,0-3h6.06a1.5,1.5,0,0,1,0,3Z" transform="translate(0 -72.17)"/><path class="cls-31" d="M223,236.9h-8.69a1.5,1.5,0,0,1,0-3H223a1.5,1.5,0,0,1,0,3Z" transform="translate(0 -72.17)"/><path class="cls-31" d="M288.46,228.26H277.31a1.5,1.5,0,0,1,0-3h11.15a1.5,1.5,0,1,1,0,3Z" transform="translate(0 -72.17)"/><path class="cls-31" d="M319.73,228.26h-24.3a1.5,1.5,0,0,1,0-3h24.3a1.5,1.5,0,0,1,0,3Z" transform="translate(0 -72.17)"/><path class="cls-32" d="M170.27,244.71h-27a1.5,1.5,0,0,1,0-3h27a1.5,1.5,0,0,1,0,3Z" transform="translate(0 -72.17)"/><path class="cls-32" d="M362.32,238.57h-60.7a1.5,1.5,0,0,1,0-3h60.7a1.5,1.5,0,0,1,0,3Z" transform="translate(0 -72.17)"/><path class="cls-32" d="M359,244.71H349.5a1.5,1.5,0,0,1,0-3H359a1.5,1.5,0,0,1,0,3Z" transform="translate(0 -72.17)"/><path class="cls-32" d="M344.65,244.71H336.4a1.5,1.5,0,0,1,0-3h8.25a1.5,1.5,0,0,1,0,3Z" transform="translate(0 -72.17)"/><g class="cls-33"><polygon class="cls-14" points="290.97 126.82 200.45 126.82 150.55 176.72 241.07 176.72 290.97 126.82"/><polygon class="cls-14" points="356.84 126.82 319.38 126.82 269.48 176.72 306.94 176.72 356.84 126.82"/><polygon class="cls-14" points="383.73 128.09 384.19 126.82 374.68 126.82 324.77 176.72 335.09 176.72 383.73 128.09"/></g><path class="cls-34" d="M386,249.84H442.5a4.91,4.91,0,0,1,4.91,4.91v74.43a4.91,4.91,0,0,1-4.91,4.91H386a0,0,0,0,1,0,0V249.84A0,0,0,0,1,386,249.84Z"/><path class="cls-35" d="M442.5,322h-.19a4.91,4.91,0,0,1,4.91,4.91v74.43a4.91,4.91,0,0,1-4.91,4.91h.19a4.91,4.91,0,0,0,4.92-4.91V326.92A4.91,4.91,0,0,0,442.5,322Z" transform="translate(0 -72.17)"/><rect class="cls-36" x="386.04" y="249.84" width="10.39" height="84.25"/><rect class="cls-37" x="396.42" y="322.01" width="1.13" height="84.25" transform="translate(793.98 656.11) rotate(180)"/><rect class="cls-38" x="430.77" y="249.84" width="6.99" height="84.25"/><rect class="cls-39" x="431.64" y="249.05" width="6.99" height="85.83"/><rect class="cls-12" x="431.64" y="249.05" width="0.53" height="85.83"/><rect class="cls-12" x="432.8" y="249.05" width="0.07" height="85.83"/><rect class="cls-40" x="432.87" y="249.05" width="0.15" height="85.83"/><rect class="cls-12" x="433.79" y="249.05" width="0.07" height="85.83"/><rect class="cls-40" x="433.86" y="249.05" width="0.15" height="85.83"/><rect class="cls-12" x="434.78" y="249.05" width="0.07" height="85.83"/><rect class="cls-40" x="434.85" y="249.05" width="0.15" height="85.83"/><rect class="cls-12" x="435.77" y="249.05" width="0.07" height="85.83"/><rect class="cls-40" x="435.84" y="249.05" width="0.15" height="85.83"/><rect class="cls-12" x="436.76" y="249.05" width="0.07" height="85.83"/><rect class="cls-40" x="436.83" y="249.05" width="0.15" height="85.83"/><rect class="cls-12" x="437.75" y="249.05" width="0.07" height="85.83"/><rect class="cls-40" x="437.82" y="249.05" width="0.15" height="85.83"/><rect class="cls-41" x="400.32" y="321.1" width="17.24" height="8.83"/><rect class="cls-41" x="400.32" y="317.88" width="17.24" height="2.05"/><rect class="cls-42" x="400.32" y="314.66" width="8.62" height="2.05"/><circle class="cls-43" cx="79.25" cy="261.7" r="36.85"/><path class="cls-44" d="M108.89,330a30,30,0,1,0,0,11.67h3.86a5.86,5.86,0,0,0,2.67-.66,37,37,0,0,0,.7-7.11c0-1,0-1.94-.13-2.91a5.82,5.82,0,0,0-3.24-1Z" transform="translate(0 -72.17)"/><path class="cls-45" d="M79.25,297.63a36.84,36.84,0,0,1,36.84,36.54c0-.1,0-.2,0-.31a36.85,36.85,0,0,0-73.7,0c0,.11,0,.21,0,.31A36.84,36.84,0,0,1,79.25,297.63Z" transform="translate(0 -72.17)"/><rect class="cls-12" x="97.88" y="255.93" width="20.68" height="11.66" rx="5.83"/><circle class="cls-46" cx="79.46" cy="261.7" r="29.99"/><path class="cls-12" d="M79.46,304.17a30,30,0,0,1,30,29.84v-.15a30,30,0,0,0-60,0c0,.05,0,.1,0,.15A30,30,0,0,1,79.46,304.17Z" transform="translate(0 -72.17)"/><ellipse class="cls-12" cx="79.46" cy="261.89" rx="26.31" ry="26.51"/><circle class="cls-47" cx="79.46" cy="261.7" r="26.31"/><circle class="cls-48" cx="79.46" cy="261.7" r="24.31"/><circle class="cls-49" cx="79.46" cy="261.7" r="23.77"/><path class="cls-50" d="M79.46,310.36A23.76,23.76,0,0,1,103.22,334s0-.08,0-.13a23.77,23.77,0,0,0-47.54,0c0,.05,0,.09,0,.13A23.75,23.75,0,0,1,79.46,310.36Z" transform="translate(0 -72.17)"/><circle class="cls-51" cx="79.46" cy="261.7" r="18.42"/><path class="cls-52" d="M79.46,315.61a18.41,18.41,0,0,1,18.41,18.33s0-.05,0-.08a18.42,18.42,0,1,0-36.84,0v.08A18.41,18.41,0,0,1,79.46,315.61Z" transform="translate(0 -72.17)"/><circle class="cls-53" cx="79.46" cy="261.7" r="11.05"/><path class="cls-54" d="M79.46,322.93a11.06,11.06,0,0,1,11.05,11v-.06a11.06,11.06,0,0,0-22.11,0s0,0,0,.06A11,11,0,0,1,79.46,322.93Z" transform="translate(0 -72.17)"/><circle class="cls-55" cx="79.46" cy="261.7" r="4.49"/><path class="cls-56" d="M79.46,329.53a4.48,4.48,0,0,1,4.48,4.41s0-.05,0-.08a4.5,4.5,0,0,0-9,0s0,.06,0,.08A4.49,4.49,0,0,1,79.46,329.53Z" transform="translate(0 -72.17)"/><circle class="cls-57" cx="73.03" cy="254.2" r="11.99"/><circle class="cls-58" cx="69.39" cy="265.07" r="5.57"/><circle class="cls-59" cx="95.73" cy="269.68" r="3.49"/><rect class="cls-60" x="433.65" y="345.25" width="15.21" height="10.01" rx="5"/><path class="cls-61" d="M441.54,424.1l-1.05,3.35-52.65.12a1.68,1.68,0,0,1-1.68-1.67h0a1.68,1.68,0,0,1,1.67-1.68Z" transform="translate(0 -72.17)"/><path class="cls-62" d="M441.53,420.76v3.34l-53.71.12a1.67,1.67,0,0,1-1.67-1.67h0a1.66,1.66,0,0,1,1.67-1.67Z" transform="translate(0 -72.17)"/><path class="cls-63" d="M440.47,417.41l1.06,3.35-53.7.12a1.68,1.68,0,0,1-1.68-1.67h0a1.68,1.68,0,0,1,1.67-1.68Z" transform="translate(0 -72.17)"/><path class="cls-64" d="M384.24,417.72l-12.86,4a.87.87,0,0,0,0,1.68l12.94,4,2.32-4.86Z" transform="translate(0 -72.17)"/><path class="cls-65" d="M438.73,424.1l-1.05,3.35-52.65.12a1.68,1.68,0,0,1-1.68-1.67h0a1.68,1.68,0,0,1,1.67-1.68Z" transform="translate(0 -72.17)"/><path class="cls-66" d="M438.72,420.76v3.34l-53.71.12a1.68,1.68,0,0,1-1.68-1.67h0a1.67,1.67,0,0,1,1.67-1.67Z" transform="translate(0 -72.17)"/><path class="cls-67" d="M437.66,417.41l1.06,3.35-53.71.12a1.67,1.67,0,0,1-1.67-1.67h0a1.67,1.67,0,0,1,1.67-1.68Z" transform="translate(0 -72.17)"/><path class="cls-68" d="M371.07,423.43l6.29,1.84a7.18,7.18,0,0,0,.63-2.68,5.7,5.7,0,0,0-.54-2.4l-6.38,1.56A.87.87,0,0,0,371.07,423.43Z" transform="translate(0 -72.17)"/><path class="cls-69" d="M371,422.54c-.17,0-.17.24.11.25l6.86.55a3,3,0,0,0,.05-.73Z" transform="translate(0 -72.17)"/><path class="cls-70" d="M371.07,421.75l-.15.06h0l-.12.07h0a.81.81,0,0,0-.19.18l0,0,0,.08,0,0a.25.25,0,0,1,0,.07s0,0,0,0h0a.92.92,0,0,1,.53-.29l6.76-1.1a7.7,7.7,0,0,0-.42-1.07Z" transform="translate(0 -72.17)"/><path class="cls-69" d="M383.35,425.9a1.68,1.68,0,0,0,1.68,1.67l52.65-.12.52-1.67Z" transform="translate(0 -72.17)"/><path class="cls-69" d="M385,424.22l53.71-.12v-.17l-54.45.12A1.64,1.64,0,0,0,385,424.22Z" transform="translate(0 -72.17)"/><path class="cls-69" d="M385,420.88l53.71-.12-.05-.18-54.4.12A1.72,1.72,0,0,0,385,420.88Z" transform="translate(0 -72.17)"/><path class="cls-69" d="M383.34,419.21a1.67,1.67,0,0,0,1.67,1.67h.12a1.68,1.68,0,0,1,0-3.35H385A1.67,1.67,0,0,0,383.34,419.21Z" transform="translate(0 -72.17)"/><path class="cls-69" d="M383.34,422.57a1.69,1.69,0,0,0,1.68,1.67h.12a1.68,1.68,0,1,1,0-3.35H385A1.68,1.68,0,0,0,383.34,422.57Z" transform="translate(0 -72.17)"/><path class="cls-69" d="M383.35,425.9a1.68,1.68,0,0,0,1.68,1.67h.12a1.68,1.68,0,0,1,0-3.35H385A1.68,1.68,0,0,0,383.35,425.9Z" transform="translate(0 -72.17)"/><rect class="cls-71" x="73.41" y="1.25" width="206.33" height="133.95" rx="5.07"/><path class="cls-72" d="M274.67,206.68H78.48a5.07,5.07,0,0,1-5.07-5.07v.68a5.07,5.07,0,0,0,5.07,5.07H274.67a5.07,5.07,0,0,0,5.07-5.07v-.68A5.07,5.07,0,0,1,274.67,206.68Z" transform="translate(0 -72.17)"/><path class="cls-73" d="M273.88,72.17H79.28A5.86,5.86,0,0,0,73.41,78v1.25a5.87,5.87,0,0,1,5.87-5.87h194.6a5.86,5.86,0,0,1,5.86,5.87V78A5.86,5.86,0,0,0,273.88,72.17Z" transform="translate(0 -72.17)"/><path class="cls-73" d="M273.88,73.41H79.28a5.87,5.87,0,0,0-5.87,5.87V95H279.74V79.28A5.86,5.86,0,0,0,273.88,73.41Z" transform="translate(0 -72.17)"/><path class="cls-74" d="M273.88,73.41H79.28a5.87,5.87,0,0,0-5.87,5.87v.21a5.87,5.87,0,0,1,5.87-5.87h194.6a5.86,5.86,0,0,1,5.86,5.87v-.21A5.86,5.86,0,0,0,273.88,73.41Z" transform="translate(0 -72.17)"/><rect class="cls-74" x="73.41" y="21.99" width="206.33" height="0.87"/><rect class="cls-75" x="81.76" y="29.35" width="190.09" height="98.79" rx="4.18"/><circle class="cls-76" cx="84.99" cy="12.05" r="5.84"/><path class="cls-74" d="M85,89.84a5.84,5.84,0,0,1-5.83-5.73s0,.07,0,.11a5.84,5.84,0,0,0,11.68,0s0-.07,0-.11A5.84,5.84,0,0,1,85,89.84Z" transform="translate(0 -72.17)"/><circle class="cls-73" cx="84.99" cy="12.05" r="4.53"/><circle class="cls-77" cx="84.99" cy="12.05" r="3.7"/><path class="cls-78" d="M85,80.62a3.69,3.69,0,0,1,3.69,3.65s0,0,0,0a3.7,3.7,0,0,0-7.4,0s0,0,0,0A3.69,3.69,0,0,1,85,80.62Z" transform="translate(0 -72.17)"/><circle class="cls-79" cx="84.99" cy="12.05" r="2.23"/><path class="cls-78" d="M85,82.1a2.24,2.24,0,0,1,2.23,2.18v-.06a2.23,2.23,0,1,0-4.46,0v.06A2.24,2.24,0,0,1,85,82.1Z" transform="translate(0 -72.17)"/><circle class="cls-76" cx="101.91" cy="12.05" r="5.84"/><path class="cls-74" d="M101.91,89.84a5.84,5.84,0,0,1-5.83-5.73s0,.07,0,.11a5.84,5.84,0,0,0,11.68,0s0-.07,0-.11A5.84,5.84,0,0,1,101.91,89.84Z" transform="translate(0 -72.17)"/><circle class="cls-73" cx="101.91" cy="12.05" r="4.53"/><circle class="cls-80" cx="101.91" cy="12.05" r="3.7"/><path class="cls-81" d="M101.91,80.62a3.7,3.7,0,0,1,3.69,3.65s0,0,0,0a3.7,3.7,0,0,0-7.4,0v0A3.7,3.7,0,0,1,101.91,80.62Z" transform="translate(0 -72.17)"/><circle class="cls-82" cx="101.91" cy="12.05" r="2.23"/><path class="cls-83" d="M101.91,82.1a2.23,2.23,0,0,1,2.22,2.18s0,0,0-.06a2.23,2.23,0,1,0-4.46,0v.06A2.23,2.23,0,0,1,101.91,82.1Z" transform="translate(0 -72.17)"/><circle class="cls-76" cx="118.83" cy="12.05" r="5.84"/><path class="cls-74" d="M118.83,89.84A5.84,5.84,0,0,1,113,84.11s0,.07,0,.11a5.84,5.84,0,0,0,11.68,0s0-.07,0-.11A5.83,5.83,0,0,1,118.83,89.84Z" transform="translate(0 -72.17)"/><circle class="cls-73" cx="118.83" cy="12.05" r="4.53"/><circle class="cls-84" cx="118.83" cy="12.05" r="3.7"/><path class="cls-85" d="M118.83,80.62a3.7,3.7,0,0,1,3.69,3.65s0,0,0,0a3.7,3.7,0,0,0-7.4,0v0A3.7,3.7,0,0,1,118.83,80.62Z" transform="translate(0 -72.17)"/><circle class="cls-86" cx="118.83" cy="12.05" r="2.23"/><path class="cls-85" d="M118.83,82.1a2.23,2.23,0,0,1,2.22,2.18s0,0,0-.06a2.24,2.24,0,0,0-4.47,0s0,0,0,.06A2.23,2.23,0,0,1,118.83,82.1Z" transform="translate(0 -72.17)"/><polyline class="cls-87" points="91.79 35.15 87.25 39.69 91.78 44.23"/><polyline class="cls-87" points="103.2 35.15 107.75 39.69 103.21 44.23"/><line class="cls-87" x1="95.58" y1="45" x2="99.18" y2="35.15"/><circle class="cls-88" cx="112.57" cy="45.08" r="1.28"/><circle class="cls-88" cx="117.88" cy="45.08" r="1.28"/><circle class="cls-88" cx="123.18" cy="45.08" r="1.28"/><line class="cls-87" x1="89.52" y1="54.32" x2="226.05" y2="54.32"/><line class="cls-87" x1="234.33" y1="54.32" x2="244.85" y2="54.32"/><line class="cls-87" x1="250.76" y1="54.32" x2="264.19" y2="54.32"/><line class="cls-89" x1="89.52" y1="65.06" x2="174.93" y2="65.06"/><line class="cls-89" x1="187.64" y1="65.06" x2="202.95" y2="65.06"/><line class="cls-89" x1="202.95" y1="71.24" x2="161.39" y2="71.24"/><line class="cls-89" x1="155.68" y1="71.24" x2="147.3" y2="71.24"/><line class="cls-89" x1="140.65" y1="71.24" x2="132.27" y2="71.24"/><line class="cls-89" x1="125.62" y1="71.24" x2="117.25" y2="71.24"/><line class="cls-89" x1="110.59" y1="71.24" x2="102.22" y2="71.24"/><line class="cls-90" x1="231.74" y1="78.75" x2="102.22" y2="78.75"/><line class="cls-89" x1="92.54" y1="71.24" x2="89.52" y2="71.24"/><line class="cls-89" x1="92.54" y1="78.75" x2="89.52" y2="78.75"/><line class="cls-89" x1="92.54" y1="86.26" x2="89.52" y2="86.26"/><line class="cls-89" x1="92.54" y1="93.77" x2="89.52" y2="93.77"/><line class="cls-90" x1="239.59" y1="78.75" x2="257.47" y2="78.75"/><line class="cls-90" x1="101.91" y1="86.26" x2="137.74" y2="86.26"/><line class="cls-90" x1="101.91" y1="93.95" x2="137.74" y2="93.95"/><line class="cls-90" x1="101.91" y1="101.65" x2="137.74" y2="101.65"/><line class="cls-90" x1="101.91" y1="109.34" x2="137.74" y2="109.34"/><line class="cls-91" x1="161.39" y1="109.34" x2="234.33" y2="109.34"/><line class="cls-91" x1="204.63" y1="101.65" x2="234.33" y2="101.65"/><line class="cls-91" x1="222.54" y1="93.77" x2="234.33" y2="93.77"/><rect class="cls-71" x="295.99" y="52.5" width="101.91" height="158.61" rx="5.18"/><path class="cls-92" d="M392.83,282.69H301.06a5.07,5.07,0,0,1-5.07-5.07v.59a5.07,5.07,0,0,0,5.07,5.07h91.77a5.07,5.07,0,0,0,5.07-5.07v-.59A5.07,5.07,0,0,1,392.83,282.69Z" transform="translate(0 -72.17)"/><path class="cls-73" d="M394,123.83H299.89a3.91,3.91,0,0,0-3.9,3.91v.83a3.91,3.91,0,0,1,3.9-3.91H394a3.91,3.91,0,0,1,3.9,3.91v-.83A3.91,3.91,0,0,0,394,123.83Z" transform="translate(0 -72.17)"/><path class="cls-73" d="M394,124.66H299.89a3.91,3.91,0,0,0-3.9,3.91V139H397.9V128.57A3.91,3.91,0,0,0,394,124.66Z" transform="translate(0 -72.17)"/><path class="cls-74" d="M394,124.66H299.89a3.91,3.91,0,0,0-3.9,3.91v.14a3.91,3.91,0,0,1,3.9-3.91H394a3.91,3.91,0,0,1,3.9,3.91v-.14A3.91,3.91,0,0,0,394,124.66Z" transform="translate(0 -72.17)"/><rect class="cls-74" x="295.99" y="66.29" width="101.91" height="0.58"/><rect class="cls-93" x="301.54" y="71.19" width="91.11" height="135.23" rx="4.18"/><circle class="cls-76" cx="303.69" cy="59.68" r="3.88"/><path class="cls-74" d="M303.69,135.59a3.88,3.88,0,0,1-3.88-3.81v.07a3.88,3.88,0,0,0,7.76,0,.17.17,0,0,0,0-.07A3.87,3.87,0,0,1,303.69,135.59Z" transform="translate(0 -72.17)"/><circle class="cls-73" cx="303.69" cy="59.68" r="3.01"/><circle class="cls-77" cx="303.69" cy="59.68" r="2.46"/><path class="cls-78" d="M303.69,129.46a2.46,2.46,0,0,1,2.46,2.43v0a2.46,2.46,0,1,0-4.92,0v0A2.46,2.46,0,0,1,303.69,129.46Z" transform="translate(0 -72.17)"/><circle class="cls-79" cx="303.69" cy="59.68" r="1.48"/><path class="cls-78" d="M303.69,130.44a1.48,1.48,0,0,1,1.48,1.45v0a1.49,1.49,0,0,0-3,0s0,0,0,0A1.48,1.48,0,0,1,303.69,130.44Z" transform="translate(0 -72.17)"/><circle class="cls-76" cx="314.94" cy="59.68" r="3.88"/><path class="cls-74" d="M314.94,135.59a3.88,3.88,0,0,1-3.88-3.81v.07a3.88,3.88,0,0,0,7.76,0v-.07A3.88,3.88,0,0,1,314.94,135.59Z" transform="translate(0 -72.17)"/><circle class="cls-73" cx="314.94" cy="59.68" r="3.01"/><circle class="cls-80" cx="314.94" cy="59.68" r="2.46"/><path class="cls-81" d="M314.94,129.46a2.46,2.46,0,0,1,2.46,2.43v0a2.46,2.46,0,1,0-4.92,0v0A2.46,2.46,0,0,1,314.94,129.46Z" transform="translate(0 -72.17)"/><circle class="cls-82" cx="314.94" cy="59.68" r="1.48"/><path class="cls-83" d="M314.94,130.44a1.48,1.48,0,0,1,1.48,1.45v0a1.48,1.48,0,0,0-3,0v0A1.48,1.48,0,0,1,314.94,130.44Z" transform="translate(0 -72.17)"/><circle class="cls-76" cx="326.19" cy="59.68" r="3.88"/><path class="cls-74" d="M326.19,135.59a3.89,3.89,0,0,1-3.88-3.81v.07a3.88,3.88,0,0,0,7.76,0v-.07A3.88,3.88,0,0,1,326.19,135.59Z" transform="translate(0 -72.17)"/><circle class="cls-73" cx="326.19" cy="59.68" r="3.01"/><circle class="cls-84" cx="326.19" cy="59.68" r="2.46"/><path class="cls-85" d="M326.19,129.46a2.46,2.46,0,0,1,2.46,2.43v0a2.46,2.46,0,1,0-4.92,0v0A2.46,2.46,0,0,1,326.19,129.46Z" transform="translate(0 -72.17)"/><circle class="cls-86" cx="326.19" cy="59.68" r="1.48"/><path class="cls-85" d="M326.19,130.44a1.48,1.48,0,0,1,1.48,1.45s0,0,0,0a1.49,1.49,0,0,0-3,0v0A1.48,1.48,0,0,1,326.19,130.44Z" transform="translate(0 -72.17)"/><path class="cls-88" d="M369.89,160.73H306.7a.77.77,0,1,1,0-1.54h63.19a.77.77,0,1,1,0,1.54Z" transform="translate(0 -72.17)"/><path class="cls-88" d="M380.08,160.73h-4.69a.77.77,0,1,1,0-1.54h4.69a.77.77,0,1,1,0,1.54Z" transform="translate(0 -72.17)"/><path class="cls-88" d="M387.55,160.73H384a.77.77,0,1,1,0-1.54h3.54a.77.77,0,0,1,0,1.54Z" transform="translate(0 -72.17)"/><path class="cls-94" d="M342.19,167.87H306.7a.77.77,0,0,1,0-1.54h35.49a.77.77,0,0,1,0,1.54Z" transform="translate(0 -72.17)"/><path class="cls-94" d="M354.53,167.87H344.35a.77.77,0,1,1,0-1.54h10.18a.77.77,0,0,1,0,1.54Z" transform="translate(0 -72.17)"/><path class="cls-94" d="M354.53,172H348.2a.77.77,0,1,1,0-1.54h6.33a.77.77,0,1,1,0,1.54Z" transform="translate(0 -72.17)"/><path class="cls-94" d="M345.13,172h-.73a.77.77,0,1,1,0-1.54h.73a.77.77,0,0,1,0,1.54Z" transform="translate(0 -72.17)"/><path class="cls-94" d="M340.7,172h-5.57a.77.77,0,1,1,0-1.54h5.57a.77.77,0,0,1,0,1.54Z" transform="translate(0 -72.17)"/><path class="cls-94" d="M330.71,172h-5.57a.77.77,0,1,1,0-1.54h5.57a.77.77,0,0,1,0,1.54Z" transform="translate(0 -72.17)"/><path class="cls-94" d="M320.72,172h-5.57a.77.77,0,1,1,0-1.54h5.57a.77.77,0,1,1,0,1.54Z" transform="translate(0 -72.17)"/><path class="cls-95" d="M373.67,177H315.15a.77.77,0,0,1,0-1.54h58.52a.77.77,0,0,1,0,1.54Z" transform="translate(0 -72.17)"/><path class="cls-94" d="M308.71,172h-2a.77.77,0,1,1,0-1.54h2a.77.77,0,0,1,0,1.54Z" transform="translate(0 -72.17)"/><path class="cls-94" d="M308.71,177h-2a.77.77,0,0,1,0-1.54h2a.77.77,0,1,1,0,1.54Z" transform="translate(0 -72.17)"/><path class="cls-94" d="M308.71,182h-2a.77.77,0,0,1,0-1.54h2a.77.77,0,1,1,0,1.54Z" transform="translate(0 -72.17)"/><path class="cls-94" d="M308.71,187h-2a.77.77,0,0,1,0-1.54h2a.77.77,0,0,1,0,1.54Z" transform="translate(0 -72.17)"/><path class="cls-95" d="M386.17,177h-7.28a.77.77,0,1,1,0-1.54h7.28a.77.77,0,0,1,0,1.54Z" transform="translate(0 -72.17)"/><path class="cls-95" d="M338.77,182H314.94a.77.77,0,0,1,0-1.54h23.83a.77.77,0,0,1,0,1.54Z" transform="translate(0 -72.17)"/><path class="cls-96" d="M375.39,197.32H348.2a.77.77,0,1,1,0-1.54h27.19a.77.77,0,1,1,0,1.54Z" transform="translate(0 -72.17)"/><path class="cls-96" d="M375.39,192.2H355.65a.77.77,0,1,1,0-1.54h19.74a.77.77,0,1,1,0,1.54Z" transform="translate(0 -72.17)"/><path class="cls-96" d="M375.39,187h-7.84a.77.77,0,0,1,0-1.54h7.84a.77.77,0,1,1,0,1.54Z" transform="translate(0 -72.17)"/><path class="cls-95" d="M335.13,153.78H306.7a.77.77,0,0,1,0-1.54h28.43a.77.77,0,0,1,0,1.54Z" transform="translate(0 -72.17)"/><path class="cls-96" d="M353.59,209.48H306.7a.77.77,0,0,1,0-1.54h46.89a.77.77,0,1,1,0,1.54Z" transform="translate(0 -72.17)"/><path class="cls-96" d="M353.59,215.64H306.7a.77.77,0,0,1,0-1.54h46.89a.77.77,0,1,1,0,1.54Z" transform="translate(0 -72.17)"/><path class="cls-96" d="M353.59,221.8H306.7a.77.77,0,1,1,0-1.54h46.89a.77.77,0,1,1,0,1.54Z" transform="translate(0 -72.17)"/><path class="cls-96" d="M353.59,258.57H306.7a.77.77,0,1,1,0-1.54h46.89a.77.77,0,1,1,0,1.54Z" transform="translate(0 -72.17)"/><path class="cls-88" d="M363.6,202.34H350.79a.77.77,0,0,1,0-1.54H363.6a.77.77,0,0,1,0,1.54Z" transform="translate(0 -72.17)"/><path class="cls-88" d="M387.55,202.34H369.89a.77.77,0,1,1,0-1.54h17.66a.77.77,0,0,1,0,1.54Z" transform="translate(0 -72.17)"/><path class="cls-88" d="M387.55,209.48H369.89a.77.77,0,1,1,0-1.54h17.66a.77.77,0,0,1,0,1.54Z" transform="translate(0 -72.17)"/><path class="cls-88" d="M312.48,267.92H306.7a.77.77,0,0,1,0-1.54h5.78a.77.77,0,0,1,0,1.54Z" transform="translate(0 -72.17)"/><path class="cls-88" d="M312.48,272.6H306.7a.77.77,0,0,1,0-1.54h5.78a.77.77,0,0,1,0,1.54Z" transform="translate(0 -72.17)"/><path class="cls-88" d="M359.45,272.6H315.93a.77.77,0,0,1,0-1.54h43.52a.77.77,0,0,1,0,1.54Z" transform="translate(0 -72.17)"/><path class="cls-88" d="M323.81,267.92H318a.77.77,0,0,1,0-1.54h5.78a.77.77,0,0,1,0,1.54Z" transform="translate(0 -72.17)"/><path class="cls-88" d="M335.13,267.92h-5.77a.77.77,0,0,1,0-1.54h5.77a.77.77,0,0,1,0,1.54Z" transform="translate(0 -72.17)"/><path class="cls-88" d="M346.46,267.92h-5.78a.77.77,0,0,1,0-1.54h5.78a.77.77,0,0,1,0,1.54Z" transform="translate(0 -72.17)"/><path class="cls-88" d="M357.79,267.92H352a.77.77,0,0,1,0-1.54h5.78a.77.77,0,0,1,0,1.54Z" transform="translate(0 -72.17)"/><path class="cls-88" d="M369.12,267.92h-5.78a.77.77,0,0,1,0-1.54h5.78a.77.77,0,0,1,0,1.54Z" transform="translate(0 -72.17)"/><path class="cls-88" d="M378.13,267.92h-3.47a.77.77,0,0,1,0-1.54h3.47a.77.77,0,0,1,0,1.54Z" transform="translate(0 -72.17)"/><rect class="cls-71" x="358.73" y="8.22" width="78.33" height="71.8" rx="3.16"/><path class="cls-73" d="M434.07,79.75H361.73a3,3,0,0,0-3,3v.64a3,3,0,0,1,3-3h72.34a3,3,0,0,1,3,3v-.64A3,3,0,0,0,434.07,79.75Z" transform="translate(0 -72.17)"/><path class="cls-73" d="M434.07,80.39H361.73a3,3,0,0,0-3,3v8h78.33v-8A3,3,0,0,0,434.07,80.39Z" transform="translate(0 -72.17)"/><path class="cls-74" d="M434.07,80.39H361.73a3,3,0,0,0-3,3v.1a3,3,0,0,1,3-3h72.34a3,3,0,0,1,3,3v-.1A3,3,0,0,0,434.07,80.39Z" transform="translate(0 -72.17)"/><rect class="cls-74" x="358.73" y="18.82" width="78.33" height="0.45"/><rect class="cls-97" x="363" y="22.59" width="70.03" height="53.83" rx="2.4"/><circle class="cls-76" cx="364.65" cy="13.74" r="2.98"/><path class="cls-74" d="M364.65,88.78a3,3,0,0,1-3-2.93v.06a3,3,0,1,0,6,0s0,0,0-.06A3,3,0,0,1,364.65,88.78Z" transform="translate(0 -72.17)"/><circle class="cls-73" cx="364.65" cy="13.74" r="2.32"/><circle class="cls-77" cx="364.65" cy="13.74" r="1.89"/><path class="cls-78" d="M364.65,84.07a1.88,1.88,0,0,1,1.89,1.87v0a1.89,1.89,0,0,0-3.78,0v0A1.9,1.9,0,0,1,364.65,84.07Z" transform="translate(0 -72.17)"/><circle class="cls-79" cx="364.65" cy="13.74" r="1.14"/><path class="cls-78" d="M364.65,84.83a1.14,1.14,0,0,1,1.14,1.11v0a1.14,1.14,0,1,0-2.28,0v0A1.14,1.14,0,0,1,364.65,84.83Z" transform="translate(0 -72.17)"/><circle class="cls-76" cx="373.3" cy="13.74" r="2.98"/><path class="cls-74" d="M373.3,88.78a3,3,0,0,1-3-2.93v.06a3,3,0,1,0,6,0s0,0,0-.06A3,3,0,0,1,373.3,88.78Z" transform="translate(0 -72.17)"/><circle class="cls-73" cx="373.3" cy="13.74" r="2.32"/><circle class="cls-80" cx="373.3" cy="13.74" r="1.89"/><path class="cls-81" d="M373.3,84.07a1.89,1.89,0,0,1,1.89,1.87v0a1.89,1.89,0,1,0-3.78,0v0A1.9,1.9,0,0,1,373.3,84.07Z" transform="translate(0 -72.17)"/><circle class="cls-82" cx="373.3" cy="13.74" r="1.14"/><path class="cls-83" d="M373.3,84.83a1.14,1.14,0,0,1,1.14,1.11v0a1.14,1.14,0,0,0-2.28,0v0A1.14,1.14,0,0,1,373.3,84.83Z" transform="translate(0 -72.17)"/><circle class="cls-76" cx="381.95" cy="13.74" r="2.98"/><path class="cls-74" d="M382,88.78a3,3,0,0,1-3-2.93s0,0,0,.06a3,3,0,1,0,6,0v-.06A3,3,0,0,1,382,88.78Z" transform="translate(0 -72.17)"/><circle class="cls-73" cx="381.95" cy="13.74" r="2.32"/><circle class="cls-84" cx="381.95" cy="13.74" r="1.89"/><path class="cls-85" d="M382,84.07a1.9,1.9,0,0,1,1.89,1.87v0a1.89,1.89,0,1,0-3.78,0v0A1.88,1.88,0,0,1,382,84.07Z" transform="translate(0 -72.17)"/><circle class="cls-86" cx="381.95" cy="13.74" r="1.14"/><path class="cls-85" d="M382,84.83a1.14,1.14,0,0,1,1.14,1.11v0a1.14,1.14,0,1,0-2.28,0v0A1.14,1.14,0,0,1,382,84.83Z" transform="translate(0 -72.17)"/><path class="cls-88" d="M415.53,108.1H367a.58.58,0,0,1-.59-.59.59.59,0,0,1,.59-.59h48.56a.6.6,0,0,1,.6.59A.59.59,0,0,1,415.53,108.1Z" transform="translate(0 -72.17)"/><path class="cls-88" d="M423.37,108.1h-3.6a.58.58,0,0,1-.59-.59.59.59,0,0,1,.59-.59h3.6a.59.59,0,0,1,.59.59A.58.58,0,0,1,423.37,108.1Z" transform="translate(0 -72.17)"/><path class="cls-88" d="M429.11,108.1h-2.72a.58.58,0,0,1-.59-.59.59.59,0,0,1,.59-.59h2.72a.59.59,0,0,1,.59.59A.58.58,0,0,1,429.11,108.1Z" transform="translate(0 -72.17)"/><path class="cls-94" d="M394.25,113.6H367a.6.6,0,0,1,0-1.19h27.28a.6.6,0,0,1,0,1.19Z" transform="translate(0 -72.17)"/><path class="cls-94" d="M403.73,113.6H395.9a.6.6,0,0,1,0-1.19h7.83a.6.6,0,0,1,0,1.19Z" transform="translate(0 -72.17)"/><path class="cls-94" d="M403.73,116.75h-4.87a.59.59,0,0,1-.59-.59.6.6,0,0,1,.59-.59h4.87a.59.59,0,0,1,.59.59A.58.58,0,0,1,403.73,116.75Z" transform="translate(0 -72.17)"/><path class="cls-94" d="M396.5,116.75h-.56a.59.59,0,0,1-.59-.59.6.6,0,0,1,.59-.59h.56a.6.6,0,0,1,.6.59A.59.59,0,0,1,396.5,116.75Z" transform="translate(0 -72.17)"/><path class="cls-94" d="M393.1,116.75h-4.28a.59.59,0,0,1-.59-.59.6.6,0,0,1,.59-.59h4.28a.6.6,0,0,1,.6.59A.59.59,0,0,1,393.1,116.75Z" transform="translate(0 -72.17)"/><path class="cls-94" d="M385.42,116.75h-4.28a.58.58,0,0,1-.59-.59.59.59,0,0,1,.59-.59h4.28a.59.59,0,0,1,.59.59A.58.58,0,0,1,385.42,116.75Z" transform="translate(0 -72.17)"/><path class="cls-94" d="M377.74,116.75h-4.28a.58.58,0,0,1-.59-.59.59.59,0,0,1,.59-.59h4.28a.59.59,0,0,1,.59.59A.58.58,0,0,1,377.74,116.75Z" transform="translate(0 -72.17)"/><path class="cls-95" d="M418.44,120.59h-45a.59.59,0,0,1,0-1.18h45a.59.59,0,1,1,0,1.18Z" transform="translate(0 -72.17)"/><path class="cls-94" d="M368.51,116.75H367a.58.58,0,0,1-.59-.59.59.59,0,0,1,.59-.59h1.54a.59.59,0,0,1,.59.59A.58.58,0,0,1,368.51,116.75Z" transform="translate(0 -72.17)"/><path class="cls-94" d="M368.51,120.59H367a.59.59,0,1,1,0-1.18h1.54a.59.59,0,0,1,0,1.18Z" transform="translate(0 -72.17)"/><path class="cls-94" d="M368.51,124.43H367a.59.59,0,1,1,0-1.18h1.54a.59.59,0,0,1,0,1.18Z" transform="translate(0 -72.17)"/><path class="cls-95" d="M428.05,120.59h-5.59a.59.59,0,1,1,0-1.18h5.59a.59.59,0,0,1,0,1.18Z" transform="translate(0 -72.17)"/><path class="cls-95" d="M391.62,124.43H373.3a.59.59,0,1,1,0-1.18h18.32a.59.59,0,0,1,0,1.18Z" transform="translate(0 -72.17)"/><path class="cls-96" d="M419.77,129.45H398.86a.59.59,0,0,1-.59-.59.6.6,0,0,1,.59-.59h20.91a.6.6,0,0,1,.59.59A.59.59,0,0,1,419.77,129.45Z" transform="translate(0 -72.17)"/><path class="cls-96" d="M419.77,126.79h-6a.59.59,0,0,1,0-1.18h6a.59.59,0,1,1,0,1.18Z" transform="translate(0 -72.17)"/><path class="cls-95" d="M388.82,102.77H367a.6.6,0,0,1,0-1.19h21.85a.6.6,0,0,1,0,1.19Z" transform="translate(0 -72.17)"/><path class="cls-96" d="M403,140.2H367a.6.6,0,0,1,0-1.19h36a.6.6,0,1,1,0,1.19Z" transform="translate(0 -72.17)"/><path class="cls-88" d="M410.7,133.31h-9.84a.59.59,0,0,1-.59-.59.58.58,0,0,1,.59-.59h9.84a.59.59,0,0,1,.6.59A.6.6,0,0,1,410.7,133.31Z" transform="translate(0 -72.17)"/><path class="cls-88" d="M429.11,133.31H415.53a.6.6,0,0,1-.59-.59.59.59,0,0,1,.59-.59h13.58a.58.58,0,0,1,.59.59A.59.59,0,0,1,429.11,133.31Z" transform="translate(0 -72.17)"/><path class="cls-88" d="M429.11,138.8H415.53a.59.59,0,1,1,0-1.18h13.58a.59.59,0,0,1,0,1.18Z" transform="translate(0 -72.17)"/><path class="cls-88" d="M371.41,144H367a.6.6,0,0,1,0-1.19h4.44a.6.6,0,0,1,0,1.19Z" transform="translate(0 -72.17)"/><path class="cls-88" d="M407.51,144H374.06a.6.6,0,0,1,0-1.19h33.45a.6.6,0,0,1,0,1.19Z" transform="translate(0 -72.17)"/></g></g></svg>