<svg xmlns="http://www.w3.org/2000/svg" viewBox="0 0 140.65 145.02"><defs><style>.cls-1{fill:#18196c}.cls-2{fill:none;stroke-miterlimit:10;stroke:#18196c}</style></defs><g id="Layer_2" data-name="Layer 2"><g id="Layer_1-2" data-name="Layer 1"><path class="cls-1" d="M69.54 66.32a.75.75 0 0 0 .79.79.85.85 0 0 0 .79-.79.75.75 0 0 0-.79-.79c-.32-.16-.79.15-.79.79zm0 3.16a.75.75 0 0 0 .79.8.86.86 0 0 0 .79-.8.75.75 0 0 0-.79-.79c-.32-.16-.79.16-.79.79zm.79-5.54a.79.79 0 1 0-.79-.79.84.84 0 0 0 .79.79z"/><path class="cls-2" d="M9.68 91.65l8.55 5.86-8.55 5.86-8.55-5.86zM.5 99.09l8.23 5.7v8.71L.5 107.8zm10 14.41v-8.71l8.23-5.7v8.71z"/><circle class="cls-1" cx="9.68" cy="126.8" r=".79"/><circle class="cls-1" cx="9.68" cy="123.64" r=".79"/><circle class="cls-1" cx="9.68" cy="129.81" r=".79"/><circle class="cls-1" cx="9.68" cy="132.98" r=".79"/><circle class="cls-1" cx="13.01" cy="132.98" r=".79"/><circle class="cls-1" cx="16.18" cy="132.98" r=".79"/><circle class="cls-1" cx="19.5" cy="132.98" r=".79"/><circle class="cls-1" cx="22.67" cy="132.98" r=".79"/><circle class="cls-1" cx="70.49" cy="126.64" r=".79"/><circle class="cls-1" cx="70.49" cy="123.48" r=".79"/><circle class="cls-1" cx="70.49" cy="129.81" r=".79"/><circle class="cls-1" cx="70.49" cy="132.98" r=".79"/><circle class="cls-1" cx="67.16" cy="132.98" r=".79"/><circle class="cls-1" cx="63.99" cy="132.98" r=".79"/><circle class="cls-1" cx="60.67" cy="132.98" r=".79"/><circle class="cls-1" cx="57.5" cy="132.98" r=".79"/><circle class="cls-1" cx="9.68" cy="78.83" r=".79"/><circle class="cls-1" cx="9.68" cy="81.99" r=".79"/><circle class="cls-1" cx="9.68" cy="75.66" r=".79"/><circle class="cls-1" cx="9.68" cy="72.49" r=".79"/><circle class="cls-1" cx="13.01" cy="72.49" r=".79"/><circle class="cls-1" cx="16.18" cy="72.49" r=".79"/><circle class="cls-1" cx="19.5" cy="72.49" r=".79"/><circle class="cls-1" cx="22.67" cy="72.49" r=".79"/><circle class="cls-1" cx="70.49" cy="78.98" r=".79"/><circle class="cls-1" cx="70.49" cy="81.99" r=".79"/><circle class="cls-1" cx="70.49" cy="75.82" r=".79"/><circle class="cls-1" cx="70.33" cy="72.65" r=".79"/><circle class="cls-1" cx="67.16" cy="72.65" r=".79"/><circle class="cls-1" cx="63.84" cy="72.65" r=".79"/><circle class="cls-1" cx="60.67" cy="72.65" r=".79"/><circle class="cls-1" cx="57.5" cy="72.65" r=".79"/><circle class="cls-1" cx="70.33" cy="66.32" r=".79"/><circle class="cls-1" cx="70.33" cy="63.15" r=".79"/><circle class="cls-1" cx="70.33" cy="69.48" r=".79"/><circle class="cls-1" cx="73.65" cy="72.65" r=".79"/><circle class="cls-1" cx="76.82" cy="72.65" r=".79"/><circle class="cls-1" cx="80.14" cy="72.65" r=".79"/><circle class="cls-1" cx="83.31" cy="72.65" r=".79"/><circle class="cls-1" cx="131.13" cy="66.32" r=".79"/><circle class="cls-1" cx="131.13" cy="63.15" r=".79"/><circle class="cls-1" cx="131.13" cy="69.33" r=".79"/><circle class="cls-1" cx="131.13" cy="72.49" r=".79"/><circle class="cls-1" cx="127.8" cy="72.49" r=".79"/><circle class="cls-1" cx="124.64" cy="72.49" r=".79"/><circle class="cls-1" cx="121.31" cy="72.49" r=".79"/><circle class="cls-1" cx="118.15" cy="72.49" r=".79"/><circle class="cls-1" cx="70.33" cy="18.5" r=".79"/><circle class="cls-1" cx="70.33" cy="21.67" r=".79"/><circle class="cls-1" cx="70.33" cy="15.33" r=".79"/><circle class="cls-1" cx="70.33" cy="12.16" r=".79"/><circle class="cls-1" cx="73.65" cy="12.16" r=".79"/><circle class="cls-1" cx="76.82" cy="12.16" r=".79"/><circle class="cls-1" cx="80.14" cy="12.16" r=".79"/><circle class="cls-1" cx="83.31" cy="12.16" r=".79"/><circle class="cls-1" cx="131.13" cy="18.5" r=".79"/><circle class="cls-1" cx="130.97" cy="21.67" r=".79"/><circle class="cls-1" cx="130.97" cy="15.49" r=".79"/><circle class="cls-1" cx="130.97" cy="12.32" r=".79"/><circle class="cls-1" cx="127.8" cy="12.32" r=".79"/><circle class="cls-1" cx="124.48" cy="12.32" r=".79"/><circle class="cls-1" cx="121.31" cy="12.32" r=".79"/><circle class="cls-1" cx="118.15" cy="12.32" r=".79"/><path class="cls-2" d="M40.56 61.09L49.11 67l-8.55 5.86L32 67zm-9 7.44l8.24 5.7v8.71l-8.24-5.86zm9.82 14.41v-8.71l8.24-5.7v8.71zm29.11 8.71L79 97.51l-8.55 5.86-8.55-5.86zm-9 7.44l8.23 5.7v8.71l-8.23-5.7zm9.82 14.41v-8.71l8.23-5.7v8.71zm-30.75 8.87l8.55 5.86-8.55 5.86-8.56-5.86zm-9 7.28l8.24 5.7v8.71l-8.24-5.7zm9.82 14.41v-8.71l8.24-5.7v8.71z"/><path d="M101.2 61.88l8.55 5.86-8.55 5.86-8.55-5.86zM92 69.17l8.23 5.7v8.71L92 77.88zm10 14.56V75l8.23-5.7V78zM70.33 31.17L78.88 37l-8.55 5.86L61.78 37zm-.79 13.14V53l-8.24-5.7v-8.69zM71.12 53v-8.69l8.23-5.7v8.71zm60.01-21.83l8.55 5.83-8.55 5.86-8.55-5.86zm-9 7.44l8.24 5.7V53l-8.24-5.7zM131.92 53v-8.69l8.23-5.7v8.71zM101.2.61l8.55 5.85-8.55 5.86-8.55-5.86zM92 8.05l8.23 5.7v8.71L92 16.76zm10 14.41v-8.71l8.23-5.7v8.71z" stroke="#38f" fill="none" stroke-miterlimit="10"/></g></g></svg>