<svg xmlns="http://www.w3.org/2000/svg" viewBox="0 0 133.16 130.98"><defs><style>.cls-2{fill:none;stroke-miterlimit:10;stroke:#18196c}.cls-4{fill:#fff}</style></defs><g id="Layer_2" data-name="Layer 2"><g id="Layer_1-2" data-name="Layer 1"><circle id="_Path_" data-name="&lt;Path&gt;" cx="101.51" cy="31.65" r="31.65" transform="rotate(-76.72 101.514 31.651)" fill="#38f"/><g id="_Group_" data-name="&lt;Group&gt;"><g id="_Group_2" data-name="&lt;Group&gt;"><path id="_Compound_Path_" data-name="&lt;Compound Path&gt;" class="cls-2" d="M16.62 78.4a72.17 72.17 0 0 0 29.26-23.7 4.53 4.53 0 0 1 4.33-1.88 4.59 4.59 0 0 1 3.71 2.94L65.69 87a4.6 4.6 0 0 1-5.34 6.1c-18.18-4.16-31.71-.86-37.32 1"/></g><path id="_Path_2" data-name="&lt;Path&gt;" d="M19.45 130.48H9.1c-4.31 0-7.4-3.84-6.13-7.63a175.33 175.33 0 0 0 5.95-22.59 8.21 8.21 0 0 1-7.77-5.19 8.65 8.65 0 0 1 3.12-10.45A3.93 3.93 0 0 1 6.57 81l6.75-3a3.74 3.74 0 0 1 4.94 2.08L23 91.67a4 4 0 0 1-2 5.11l-1.72.75-.54 5.91a28.34 28.34 0 0 0 3.07 15.62l2.38 4.6c1.57 3.17-.94 6.82-4.74 6.82z" stroke="#244f4e" fill="none" stroke-miterlimit="10"/><g id="_Group_3" data-name="&lt;Group&gt;"><path id="_Path_3" data-name="&lt;Path&gt;" class="cls-2" d="M46.91 61.88l9.61 24.76z"/></g><path id="_Path_4" data-name="&lt;Path&gt;" class="cls-2" d="M21.09 126.38H6.24A1.37 1.37 0 0 1 4.87 125a1.37 1.37 0 0 1 1.37-1.37h14.85a1.38 1.38 0 0 1 1.37 1.37 1.38 1.38 0 0 1-1.37 1.38z"/></g><g id="_Group_4" data-name="&lt;Group&gt;"><path id="_Compound_Path_2" data-name="&lt;Compound Path&gt;" class="cls-2" d="M93.88 1.45a29.27 29.27 0 0 0-17.63 52.63 1.51 1.51 0 0 1 .31 2.11l-5.29 7.11 10.14-5.46a1.52 1.52 0 0 1 1.3-.07A29 29 0 0 0 93.88 60a29.27 29.27 0 0 0 0-58.53z"/></g><g id="_Group_5" data-name="&lt;Group&gt;"><path id="_Compound_Path_3" data-name="&lt;Compound Path&gt;" class="cls-4" d="M78.91 22.5h7.66c4.25 0 7.9 1.58 7.9 6.56S90.7 36 86.57 36h-2.43v6.26h-5.23zm7.41 9.36c2.07 0 3-1 3-2.8s-1.09-2.43-3-2.43h-2.18v5.23z"/><path id="_Compound_Path_4" data-name="&lt;Compound Path&gt;" class="cls-4" d="M108.32 42.25l-3.4-6.63h-2v6.63h-5.23V22.5h7.47c4.25 0 7.9 1.46 7.9 6.38a6.05 6.05 0 0 1-3.19 5.71l4.28 7.66zm-5.41-10.76h1.89c2.06 0 3.16-.91 3.16-2.61s-1.1-2.25-3.16-2.25h-1.89z"/></g></g></g></svg>