<?xml version="1.0" encoding="iso-8859-1"?>
<!-- Generator: Adobe Illustrator 19.0.0, SVG Export Plug-In . SVG Version: 6.00 Build 0)  -->
<svg version="1.1" id="Capa_1" xmlns="http://www.w3.org/2000/svg" xmlns:xlink="http://www.w3.org/1999/xlink" x="0px" y="0px"
	 viewBox="0 0 480 480" style="enable-background:new 0 0 480 480;" xml:space="preserve">
<path style="fill:#2BB0AF;" d="M128,248H8.552C8.248,247.232,8,247.432,8,247.688V464h152V273.432
	C160,258.96,145.672,247.232,128,248z"/>
<path style="fill:#EFC95B;" d="M248,240c0-44-36-80-80-80h-40H88c-44,0-80,36-80,80v7.688c0-0.256,0.248-0.456,0.552,0.312H128
	c17.672-0.768,32,10.96,32,25.432V464h32V336v-24c0,8.752,2.384,16.936,6.472,24H200l30.792,23.096
	C233.776,359.68,236.848,360,240,360h100c15.464,0,28-12.536,28-28s-12.536-28-28-28h-92V240z"/>
<path style="fill:#E7E7E7;" d="M440,16H128c39.76,0,72,32.264,72,72c0,18.352-6.936,35.056-18.248,47.776
	C168.56,150.6,149.4,160,128,160h40c44,0,80,36,80,80v64h92h100c17.672,0,32-14.328,32-32V48C472,30.328,457.672,16,440,16z"/>
<path style="fill:#EFC95B;" d="M181.752,135.776C193.064,123.056,200,106.352,200,88c0-39.736-32.24-72-72-72S56,48.264,56,88
	s32.24,72,72,72C149.4,160,168.56,150.6,181.752,135.776z"/>
<polygon style="fill:#E7E7E7;" points="232,360 230.792,359.096 200,336 198.472,336 192,336 192,464 192,472 456,472 456,408 
	472,408 472,360 340,360 240,360 "/>
<g>
	<rect x="280" y="264" style="fill:#383838;" width="16" height="16"/>
	<rect x="272" y="176" style="fill:#383838;" width="40" height="16"/>
	<rect x="336" y="176" style="fill:#383838;" width="40" height="16"/>
	<rect x="400" y="176" style="fill:#383838;" width="40" height="16"/>
	<path style="fill:#383838;" d="M389.656,42.344l-11.312,11.312L420.688,96l-42.344,42.344l11.312,11.312l48-48
		c3.128-3.128,3.128-8.184,0-11.312L389.656,42.344z"/>
	<path style="fill:#383838;" d="M293.656,138.344L251.312,96l42.344-42.344l-11.312-11.312l-48,48
		c-3.128,3.128-3.128,8.184,0,11.312l48,48L293.656,138.344z"/>
	
		<rect x="285.903" y="91.955" transform="matrix(-0.4791 0.8778 -0.8778 -0.4791 584.7041 -147.0856)" style="fill:#383838;" width="100.187" height="16.001"/>
	<path style="fill:#383838;" d="M440,8H128C83.888,8,48,43.888,48,88c0,26.408,12.912,49.792,32.696,64.368
		C35.584,156.104,0,193.944,0,240v7.68V464v0.768h0.152C0.56,468.808,3.856,472,8,472h184c4.416,0,8-3.584,8-8V351.16
		c10.168,10.384,24.344,16.84,40,16.84h100h124v32h-32v16h16v56h16v-56h8c4.416,0,8-3.584,8-8v-48c0-4.416-3.584-8-8-8H369.904
		c3.84-5.728,6.096-12.6,6.096-20s-2.256-14.272-6.096-20H440c22.056,0,40-17.944,40-40V48C480,25.944,462.056,8,440,8z M64,88
		c0-35.288,28.712-64,64-64s64,28.712,64,64c0,14.872-5.144,28.544-13.688,39.424C163.384,124.728,152,111.696,152,96h-16
		c0,19.744,11.984,36.72,29.048,44.088C154.584,147.56,141.816,152,128,152C92.712,152,64,123.288,64,88z M16,256l112.344-0.008
		c7.296-0.304,14.024,2.032,18.608,6.416c2.304,2.208,5.048,5.912,5.048,11.024V456H16V256z M360,332c0,11.024-8.976,20-20,20H240
		c-22.056,0-40-17.944-40-40v-72h-16v216h-16V273.432c0-8.392-3.544-16.416-9.984-22.576c-7.72-7.4-18.832-11.328-30.016-10.856H16
		c0-39.696,32.304-72,72-72h80c39.696,0,72,32.304,72,72v64c0,4.416,3.584,8,8,8h92C351.024,312,360,320.976,360,332z M464,272
		c0,13.232-10.768,24-24,24H340h-84v-48h208V272z M464,232H256v8c0-46.056-35.584-83.896-80.696-87.632
		C195.088,137.792,208,114.408,208,88c0-26.184-12.704-49.4-32.2-64H440c13.232,0,24,10.768,24,24V232z"/>
</g>
<g>
</g>
<g>
</g>
<g>
</g>
<g>
</g>
<g>
</g>
<g>
</g>
<g>
</g>
<g>
</g>
<g>
</g>
<g>
</g>
<g>
</g>
<g>
</g>
<g>
</g>
<g>
</g>
<g>
</g>
</svg>
