<svg xmlns="http://www.w3.org/2000/svg" viewBox="0 0 148.65 146"><defs><style>.cls-1{fill:none;stroke:#18196c;stroke-miterlimit:10}</style></defs><g id="Layer_2" data-name="Layer 2"><g id="Layer_1-2" data-name="Layer 1"><path class="cls-1" d="M119.15 40.06a2.73 2.73 0 0 0-1.75-2.55L75.3 21.4a2.73 2.73 0 0 0-2 0L31.26 37.51a2.73 2.73 0 0 0-1.76 2.55v20.53A86.37 86.37 0 0 0 73 135.44a2.74 2.74 0 0 0 1.36.36 2.7 2.7 0 0 0 1.35-.36 86.34 86.34 0 0 0 43.47-74.85z"/><path d="M73.35 40.93l-23.86 9.13a2.73 2.73 0 0 0-1.76 2.55v8a67.75 67.75 0 0 0 24.86 52.53 2.74 2.74 0 0 0 3.47 0 67.75 67.75 0 0 0 24.86-52.53v-8a2.75 2.75 0 0 0-1.76-2.56L75.3 40.93a2.73 2.73 0 0 0-1.95 0z" fill="#38f"/><path class="cls-1" d="M115.85 12.73a12.11 12.11 0 0 0 .89 4.56L109 24.13a2.73 2.73 0 1 0 3.62 4.1l7.27-6.43a12.21 12.21 0 1 0-4.05-9.07zm19 0A6.76 6.76 0 1 1 128.08 6a6.76 6.76 0 0 1 6.76 6.73zm3.81 61.94V55.55a2.74 2.74 0 0 0-2.73-2.74h-8.32a2.74 2.74 0 1 0 0 5.47h5.58v16.44a12.12 12.12 0 1 0 5.47 0zm-2.74 18.66a6.74 6.74 0 0 1-1.09-13.4 5.52 5.52 0 0 1 1.09-.11 6.76 6.76 0 1 1 0 13.51zm-1.68 27.72a10.4 10.4 0 0 0-2.1.2 12.14 12.14 0 0 0-9.78 9.29h-6.26v-6.73a2.74 2.74 0 0 0-2.74-2.73H104a2.74 2.74 0 1 0 0 5.47h6.61v6.72a2.74 2.74 0 0 0 2.73 2.74h9a12.22 12.22 0 1 0 11.9-15zm0 19a6.75 6.75 0 0 1-1.09-13.41 5.52 5.52 0 0 1 1.09-.1 6.76 6.76 0 1 1 0 13.51zM20.57 25a12.16 12.16 0 0 0 8.18-3.16L36 28.23a2.72 2.72 0 0 0 1.81.69 2.74 2.74 0 0 0 1.81-4.79l-7.74-6.84a12.11 12.11 0 0 0 .89-4.56A12.23 12.23 0 1 0 20.57 25zm0-19a6.76 6.76 0 1 1-6.76 6.76A6.76 6.76 0 0 1 20.57 6zm-7.83 92.8a12.2 12.2 0 0 0 2.72-24.09V58.28h5.59a2.74 2.74 0 0 0 0-5.47h-8.32A2.74 2.74 0 0 0 10 55.55v19.12a12.22 12.22 0 0 0 2.74 24.13zm0-19a5.58 5.58 0 0 1 1.17.13 6.74 6.74 0 0 1-1.17 13.38 6.76 6.76 0 1 1 0-13.51zm31.9 41.28h-9.35a2.73 2.73 0 0 0-2.73 2.73v6.73h-6.27a12.06 12.06 0 0 0-9.68-9.27 10.66 10.66 0 0 0-2.2-.22 12.23 12.23 0 1 0 11.9 15h9a2.74 2.74 0 0 0 2.69-2.78v-6.72h6.61a2.74 2.74 0 0 0 0-5.47zM14.41 140a6.76 6.76 0 1 1 0-13.51 5.62 5.62 0 0 1 1.18.12A6.75 6.75 0 0 1 14.41 140z"/></g></g></svg>